<svg width="285" height="326" viewBox="0 0 285 326" fill="none" xmlns="http://www.w3.org/2000/svg">
<g clip-path="url(#clip0)">
<g filter="url(#filter0_dd)">
<rect x="0.611328" width="284.083" height="325.331" rx="8" fill="white"/>
</g>
<path fill-rule="evenodd" clip-rule="evenodd" d="M99.5098 133.582C109.349 93.386 143.697 63.7986 183.513 54.3148C223.328 44.8309 247.65 105.024 243.856 145.383C240.062 185.742 200.403 211.736 160.186 206.083C119.969 200.431 89.6709 173.778 99.5098 133.582Z" fill="#009DC8"/>
<path d="M55.9094 276.72C56.7094 276.973 57.3361 277.4 57.7894 278C58.2428 278.587 58.4694 279.313 58.4694 280.18C58.4694 281.407 57.9894 282.353 57.0294 283.02C56.0828 283.673 54.6961 284 52.8694 284H45.6294V270H52.4694C54.1761 270 55.4828 270.327 56.3894 270.98C57.3094 271.633 57.7694 272.52 57.7694 273.64C57.7694 274.32 57.6028 274.927 57.2694 275.46C56.9494 275.993 56.4961 276.413 55.9094 276.72ZM48.8494 272.44V275.74H52.0694C52.8694 275.74 53.4761 275.6 53.8894 275.32C54.3028 275.04 54.5094 274.627 54.5094 274.08C54.5094 273.533 54.3028 273.127 53.8894 272.86C53.4761 272.58 52.8694 272.44 52.0694 272.44H48.8494ZM52.6294 281.56C53.4828 281.56 54.1228 281.42 54.5494 281.14C54.9894 280.86 55.2094 280.427 55.2094 279.84C55.2094 278.68 54.3494 278.1 52.6294 278.1H48.8494V281.56H52.6294ZM71.5424 273.24V284H68.5824V282.72C68.1691 283.187 67.6757 283.547 67.1024 283.8C66.5291 284.04 65.9091 284.16 65.2424 284.16C63.8291 284.16 62.7091 283.753 61.8824 282.94C61.0557 282.127 60.6424 280.92 60.6424 279.32V273.24H63.7624V278.86C63.7624 280.593 64.4891 281.46 65.9424 281.46C66.6891 281.46 67.2891 281.22 67.7424 280.74C68.1957 280.247 68.4224 279.52 68.4224 278.56V273.24H71.5424ZM78.0529 284.16C77.1595 284.16 76.2862 284.053 75.4329 283.84C74.5795 283.613 73.8995 283.333 73.3929 283L74.4329 280.76C74.9129 281.067 75.4929 281.32 76.1729 281.52C76.8529 281.707 77.5195 281.8 78.1729 281.8C79.4929 281.8 80.1529 281.473 80.1529 280.82C80.1529 280.513 79.9729 280.293 79.6129 280.16C79.2529 280.027 78.6995 279.913 77.9529 279.82C77.0729 279.687 76.3462 279.533 75.7729 279.36C75.1995 279.187 74.6995 278.88 74.2729 278.44C73.8595 278 73.6529 277.373 73.6529 276.56C73.6529 275.88 73.8462 275.28 74.2329 274.76C74.6329 274.227 75.2062 273.813 75.9529 273.52C76.7129 273.227 77.6062 273.08 78.6329 273.08C79.3929 273.08 80.1462 273.167 80.8929 273.34C81.6529 273.5 82.2795 273.727 82.7729 274.02L81.7329 276.24C80.7862 275.707 79.7529 275.44 78.6329 275.44C77.9662 275.44 77.4662 275.533 77.1329 275.72C76.7995 275.907 76.6329 276.147 76.6329 276.44C76.6329 276.773 76.8129 277.007 77.1729 277.14C77.5329 277.273 78.1062 277.4 78.8929 277.52C79.7729 277.667 80.4929 277.827 81.0529 278C81.6129 278.16 82.0995 278.46 82.5129 278.9C82.9262 279.34 83.1329 279.953 83.1329 280.74C83.1329 281.407 82.9329 282 82.5329 282.52C82.1329 283.04 81.5462 283.447 80.7729 283.74C80.0129 284.02 79.1062 284.16 78.0529 284.16ZM90.2579 284.16C89.1112 284.16 88.0779 283.927 87.1579 283.46C86.2512 282.98 85.5379 282.32 85.0179 281.48C84.5112 280.64 84.2579 279.687 84.2579 278.62C84.2579 277.553 84.5112 276.6 85.0179 275.76C85.5379 274.92 86.2512 274.267 87.1579 273.8C88.0779 273.32 89.1112 273.08 90.2579 273.08C91.3912 273.08 92.3779 273.32 93.2179 273.8C94.0712 274.267 94.6912 274.94 95.0779 275.82L92.6579 277.12C92.0979 276.133 91.2912 275.64 90.2379 275.64C89.4245 275.64 88.7512 275.907 88.2179 276.44C87.6845 276.973 87.4179 277.7 87.4179 278.62C87.4179 279.54 87.6845 280.267 88.2179 280.8C88.7512 281.333 89.4245 281.6 90.2379 281.6C91.3045 281.6 92.1112 281.107 92.6579 280.12L95.0779 281.44C94.6912 282.293 94.0712 282.96 93.2179 283.44C92.3779 283.92 91.3912 284.16 90.2579 284.16ZM101.214 273.08C102.881 273.08 104.161 273.48 105.054 274.28C105.948 275.067 106.394 276.26 106.394 277.86V284H103.474V282.66C102.888 283.66 101.794 284.16 100.194 284.16C99.3676 284.16 98.6476 284.02 98.0343 283.74C97.4343 283.46 96.9743 283.073 96.6543 282.58C96.3343 282.087 96.1743 281.527 96.1743 280.9C96.1743 279.9 96.5476 279.113 97.2943 278.54C98.0543 277.967 99.2209 277.68 100.794 277.68H103.274C103.274 277 103.068 276.48 102.654 276.12C102.241 275.747 101.621 275.56 100.794 275.56C100.221 275.56 99.6543 275.653 99.0943 275.84C98.5476 276.013 98.0809 276.253 97.6943 276.56L96.5743 274.38C97.1609 273.967 97.8609 273.647 98.6743 273.42C99.5009 273.193 100.348 273.08 101.214 273.08ZM100.974 282.06C101.508 282.06 101.981 281.94 102.394 281.7C102.808 281.447 103.101 281.08 103.274 280.6V279.5H101.134C99.8543 279.5 99.2143 279.92 99.2143 280.76C99.2143 281.16 99.3676 281.48 99.6743 281.72C99.9943 281.947 100.428 282.06 100.974 282.06ZM112.198 274.66C112.571 274.14 113.071 273.747 113.698 273.48C114.338 273.213 115.071 273.08 115.898 273.08V275.96C115.551 275.933 115.318 275.92 115.198 275.92C114.305 275.92 113.605 276.173 113.098 276.68C112.591 277.173 112.338 277.92 112.338 278.92V284H109.218V273.24H112.198V274.66ZM128.695 284.16C127.549 284.16 126.515 283.927 125.595 283.46C124.689 282.98 123.975 282.32 123.455 281.48C122.949 280.64 122.695 279.687 122.695 278.62C122.695 277.553 122.949 276.6 123.455 275.76C123.975 274.92 124.689 274.267 125.595 273.8C126.515 273.32 127.549 273.08 128.695 273.08C129.829 273.08 130.815 273.32 131.655 273.8C132.509 274.267 133.129 274.94 133.515 275.82L131.095 277.12C130.535 276.133 129.729 275.64 128.675 275.64C127.862 275.64 127.189 275.907 126.655 276.44C126.122 276.973 125.855 277.7 125.855 278.62C125.855 279.54 126.122 280.267 126.655 280.8C127.189 281.333 127.862 281.6 128.675 281.6C129.742 281.6 130.549 281.107 131.095 280.12L133.515 281.44C133.129 282.293 132.509 282.96 131.655 283.44C130.815 283.92 129.829 284.16 128.695 284.16ZM140.295 284.16C139.162 284.16 138.142 283.927 137.235 283.46C136.342 282.98 135.642 282.32 135.135 281.48C134.628 280.64 134.375 279.687 134.375 278.62C134.375 277.553 134.628 276.6 135.135 275.76C135.642 274.92 136.342 274.267 137.235 273.8C138.142 273.32 139.162 273.08 140.295 273.08C141.428 273.08 142.442 273.32 143.335 273.8C144.228 274.267 144.928 274.92 145.435 275.76C145.942 276.6 146.195 277.553 146.195 278.62C146.195 279.687 145.942 280.64 145.435 281.48C144.928 282.32 144.228 282.98 143.335 283.46C142.442 283.927 141.428 284.16 140.295 284.16ZM140.295 281.6C141.095 281.6 141.748 281.333 142.255 280.8C142.775 280.253 143.035 279.527 143.035 278.62C143.035 277.713 142.775 276.993 142.255 276.46C141.748 275.913 141.095 275.64 140.295 275.64C139.495 275.64 138.835 275.913 138.315 276.46C137.795 276.993 137.535 277.713 137.535 278.62C137.535 279.527 137.795 280.253 138.315 280.8C138.835 281.333 139.495 281.6 140.295 281.6ZM162.061 273.08C163.407 273.08 164.474 273.48 165.261 274.28C166.061 275.067 166.461 276.253 166.461 277.84V284H163.341V278.32C163.341 277.467 163.161 276.833 162.801 276.42C162.454 275.993 161.954 275.78 161.301 275.78C160.567 275.78 159.987 276.02 159.561 276.5C159.134 276.967 158.921 277.667 158.921 278.6V284H155.801V278.32C155.801 276.627 155.121 275.78 153.761 275.78C153.041 275.78 152.467 276.02 152.041 276.5C151.614 276.967 151.401 277.667 151.401 278.6V284H148.281V273.24H151.261V274.48C151.661 274.027 152.147 273.68 152.721 273.44C153.307 273.2 153.947 273.08 154.641 273.08C155.401 273.08 156.087 273.233 156.701 273.54C157.314 273.833 157.807 274.267 158.181 274.84C158.621 274.28 159.174 273.847 159.841 273.54C160.521 273.233 161.261 273.08 162.061 273.08ZM175.617 273.08C176.617 273.08 177.524 273.313 178.337 273.78C179.164 274.233 179.81 274.88 180.277 275.72C180.744 276.547 180.977 277.513 180.977 278.62C180.977 279.727 180.744 280.7 180.277 281.54C179.81 282.367 179.164 283.013 178.337 283.48C177.524 283.933 176.617 284.16 175.617 284.16C174.244 284.16 173.164 283.727 172.377 282.86V287.88H169.257V273.24H172.237V274.48C173.01 273.547 174.137 273.08 175.617 273.08ZM175.077 281.6C175.877 281.6 176.53 281.333 177.037 280.8C177.557 280.253 177.817 279.527 177.817 278.62C177.817 277.713 177.557 276.993 177.037 276.46C176.53 275.913 175.877 275.64 175.077 275.64C174.277 275.64 173.617 275.913 173.097 276.46C172.59 276.993 172.337 277.713 172.337 278.62C172.337 279.527 172.59 280.253 173.097 280.8C173.617 281.333 174.277 281.6 175.077 281.6ZM187.23 273.08C188.897 273.08 190.177 273.48 191.07 274.28C191.963 275.067 192.41 276.26 192.41 277.86V284H189.49V282.66C188.903 283.66 187.81 284.16 186.21 284.16C185.383 284.16 184.663 284.02 184.05 283.74C183.45 283.46 182.99 283.073 182.67 282.58C182.35 282.087 182.19 281.527 182.19 280.9C182.19 279.9 182.563 279.113 183.31 278.54C184.07 277.967 185.237 277.68 186.81 277.68H189.29C189.29 277 189.083 276.48 188.67 276.12C188.257 275.747 187.637 275.56 186.81 275.56C186.237 275.56 185.67 275.653 185.11 275.84C184.563 276.013 184.097 276.253 183.71 276.56L182.59 274.38C183.177 273.967 183.877 273.647 184.69 273.42C185.517 273.193 186.363 273.08 187.23 273.08ZM186.99 282.06C187.523 282.06 187.997 281.94 188.41 281.7C188.823 281.447 189.117 281.08 189.29 280.6V279.5H187.15C185.87 279.5 185.23 279.92 185.23 280.76C185.23 281.16 185.383 281.48 185.69 281.72C186.01 281.947 186.443 282.06 186.99 282.06ZM201.774 273.08C203.107 273.08 204.18 273.48 204.994 274.28C205.82 275.08 206.234 276.267 206.234 277.84V284H203.114V278.32C203.114 277.467 202.927 276.833 202.554 276.42C202.18 275.993 201.64 275.78 200.934 275.78C200.147 275.78 199.52 276.027 199.054 276.52C198.587 277 198.354 277.72 198.354 278.68V284H195.234V273.24H198.214V274.5C198.627 274.047 199.14 273.7 199.754 273.46C200.367 273.207 201.04 273.08 201.774 273.08ZM202.254 271.92C201.894 271.92 201.574 271.853 201.294 271.72C201.027 271.573 200.727 271.38 200.394 271.14C200.18 270.98 200 270.86 199.854 270.78C199.72 270.7 199.587 270.66 199.454 270.66C199.174 270.66 198.947 270.76 198.774 270.96C198.6 271.147 198.507 271.42 198.494 271.78H196.914C196.94 270.887 197.16 270.18 197.574 269.66C198 269.127 198.56 268.86 199.254 268.86C199.6 268.86 199.907 268.933 200.174 269.08C200.454 269.213 200.767 269.407 201.114 269.66C201.327 269.82 201.5 269.94 201.634 270.02C201.78 270.1 201.92 270.14 202.054 270.14C202.32 270.14 202.54 270.047 202.714 269.86C202.9 269.66 203 269.393 203.014 269.06H204.594C204.567 269.927 204.34 270.62 203.914 271.14C203.5 271.66 202.947 271.92 202.254 271.92ZM219.719 278.66C219.719 278.7 219.699 278.98 219.659 279.5H211.519C211.666 280.167 212.012 280.693 212.559 281.08C213.106 281.467 213.786 281.66 214.599 281.66C215.159 281.66 215.652 281.58 216.079 281.42C216.519 281.247 216.926 280.98 217.299 280.62L218.959 282.42C217.946 283.58 216.466 284.16 214.519 284.16C213.306 284.16 212.232 283.927 211.299 283.46C210.366 282.98 209.646 282.32 209.139 281.48C208.632 280.64 208.379 279.687 208.379 278.62C208.379 277.567 208.626 276.62 209.119 275.78C209.626 274.927 210.312 274.267 211.179 273.8C212.059 273.32 213.039 273.08 214.119 273.08C215.172 273.08 216.126 273.307 216.979 273.76C217.832 274.213 218.499 274.867 218.979 275.72C219.472 276.56 219.719 277.54 219.719 278.66ZM214.139 275.44C213.432 275.44 212.839 275.64 212.359 276.04C211.879 276.44 211.586 276.987 211.479 277.68H216.779C216.672 277 216.379 276.46 215.899 276.06C215.419 275.647 214.832 275.44 214.139 275.44ZM224.776 274.66C225.149 274.14 225.649 273.747 226.276 273.48C226.916 273.213 227.649 273.08 228.476 273.08V275.96C228.129 275.933 227.896 275.92 227.776 275.92C226.883 275.92 226.183 276.173 225.676 276.68C225.169 277.173 224.916 277.92 224.916 278.92V284H221.796V273.24H224.776V274.66ZM235.354 284.16C234.22 284.16 233.2 283.927 232.294 283.46C231.4 282.98 230.7 282.32 230.194 281.48C229.687 280.64 229.434 279.687 229.434 278.62C229.434 277.553 229.687 276.6 230.194 275.76C230.7 274.92 231.4 274.267 232.294 273.8C233.2 273.32 234.22 273.08 235.354 273.08C236.487 273.08 237.5 273.32 238.394 273.8C239.287 274.267 239.987 274.92 240.494 275.76C241 276.6 241.254 277.553 241.254 278.62C241.254 279.687 241 280.64 240.494 281.48C239.987 282.32 239.287 282.98 238.394 283.46C237.5 283.927 236.487 284.16 235.354 284.16ZM235.354 281.6C236.154 281.6 236.807 281.333 237.314 280.8C237.834 280.253 238.094 279.527 238.094 278.62C238.094 277.713 237.834 276.993 237.314 276.46C236.807 275.913 236.154 275.64 235.354 275.64C234.554 275.64 233.894 275.913 233.374 276.46C232.854 276.993 232.594 277.713 232.594 278.62C232.594 279.527 232.854 280.253 233.374 280.8C233.894 281.333 234.554 281.6 235.354 281.6Z" fill="#015C8D"/>
<g clip-path="url(#clip1)">
<path d="M97.5202 113.069C97.5202 113.069 104.51 114.959 105.853 108.634C106.938 103.53 108.66 105.455 109.435 101.932C110.209 98.4082 106.163 93.4927 105.853 89.6772C105.096 80.3446 113.343 74.6042 101.463 67.2309C91.7179 61.1811 85.6057 113.877 97.5202 113.069Z" fill="#454545"/>
<path d="M93.1469 105.06C90.5987 106.229 86.9486 109.477 90.943 116.386C97.3479 127.437 97.8472 139.176 108.092 141.874C118.336 144.573 137.258 143.713 140.925 143.077C144.593 142.442 144.679 136.185 142.871 135.739C141.063 135.292 122.881 132.284 118.939 131.15C114.996 130.033 102.031 100.952 93.1469 105.06Z" fill="#FAD000"/>
<path d="M133.419 142.699C136.673 143.077 144.834 143.937 145.643 140.173C146.005 138.523 149.62 140.138 152.788 139.468C155.956 138.798 147.244 132.421 144.817 134.02C142.045 135.841 140.564 136.924 137.706 137.268C136.397 137.423 136.311 137.32 134.073 137.491C130.371 137.784 130.233 142.321 133.419 142.699Z" fill="#FBD3AE"/>
<path d="M118.543 222.499C118.921 222.069 118.887 221.605 118.887 221.605C118.887 221.605 117.596 220.728 115.96 220.643C115.788 220.643 115.65 220.505 115.65 220.333C115.65 218.666 114.29 217.308 112.62 217.308H96.9003C96.7281 217.308 96.5904 217.171 96.5904 216.999V199.159C96.5904 198.54 96.1944 198.024 95.6262 197.818C95.5057 197.767 95.4024 197.663 95.4024 197.526V176.145C95.4024 175.973 95.2646 175.836 95.0925 175.836H90.5298C90.3577 175.836 90.2199 175.973 90.2199 176.145V197.509C90.2199 197.646 90.1338 197.749 89.9961 197.801C89.4451 198.007 89.0319 198.523 89.0319 199.142V216.999C89.0319 217.171 88.8942 217.308 88.722 217.308H71.7456C70.0755 217.308 68.7153 218.666 68.7153 220.333C68.7153 220.522 68.5948 220.66 68.4226 220.677C66.9419 220.849 65.7884 221.605 65.7884 221.605C65.7884 221.605 65.7712 222.052 66.1155 222.482C65.599 223.066 65.2891 223.822 65.2891 224.664C65.2891 226.52 66.8214 228.016 68.6981 228.016C70.0927 228.016 71.2807 227.191 71.8145 226.022C72.0211 226.039 72.2621 226.056 72.5376 226.039C72.5376 226.039 73.4329 223.375 71.7973 221.725C71.6079 221.536 71.7284 221.192 72.0039 221.192H92.0794C92.3549 221.192 92.4926 221.519 92.286 221.725C90.6504 223.358 91.5457 226.039 91.5457 226.039C91.8211 226.056 92.045 226.039 92.2688 226.022C92.8025 227.191 93.9905 228.016 95.3851 228.016C97.2618 228.016 98.7942 226.52 98.7942 224.664C98.7942 223.839 98.4671 223.083 97.9678 222.499C98.3293 222.069 98.2949 221.622 98.2949 221.622C98.2949 221.622 98.0022 221.433 97.5373 221.227H112.637C112.913 221.227 113.05 221.553 112.844 221.76C111.208 223.392 112.103 226.074 112.103 226.074C112.379 226.091 112.603 226.074 112.792 226.056C113.326 227.225 114.514 228.05 115.908 228.05C117.802 228.05 119.317 226.555 119.317 224.699C119.352 223.839 119.042 223.083 118.543 222.499Z" fill="#212440"/>
<path d="M76.532 156.449C82.5065 156.965 87.4479 152.754 86.8969 147.615C85.0546 130.411 79.9066 96.1397 67.7167 91.1039C51.8422 84.5385 41.0297 92.032 60.2271 149.574C61.3462 152.943 64.7725 155.435 68.8186 155.779L76.532 156.449Z" fill="#212440"/>
<path d="M119.214 184.756C119.214 184.756 88.2054 198.059 66.2876 176.833C44.3698 155.59 154.768 178.912 119.214 184.756Z" fill="#212440"/>
<path d="M106.921 211.379C106.645 212.135 105.526 216.26 103.202 220.883C101.187 224.888 99.6721 228.394 105.647 228.17C110.588 227.998 113.291 227.878 121.314 228.291C126.996 228.583 124.31 226.486 120.901 225.644C117.234 224.75 110.708 222.911 111.139 218.769C111.397 216.363 116.528 208.749 115.581 208.749C114.634 208.749 106.542 211.018 106.921 211.379Z" fill="#F0C297"/>
<path d="M164.134 214.696C164.134 214.696 172.037 217.067 172.295 221.536C172.536 226.005 172.863 228.308 178.717 227.156C184.571 226.005 187.963 228.342 194.609 227.964C200.291 227.637 199.206 226.4 195.625 225.214C192.044 224.028 183.246 220.367 178.407 217.171C172.881 213.527 169.661 209.024 169.661 209.024C169.661 209.024 163.652 214.489 164.134 214.696Z" fill="#FBD3AE"/>
<path d="M77.7199 158.013C77.7199 158.013 77.1173 168.686 82.2653 173.223C87.4133 177.761 115.977 197.474 124.362 202.338C132.747 207.202 152.581 217.205 160.036 217.652C167.492 218.099 176.479 210.863 175.274 209.814C174.069 208.766 138.807 182.711 128.511 176.059C118.215 169.408 116.201 155.314 107.42 155.074C98.6391 154.85 77.7199 158.013 77.7199 158.013Z" fill="#DEDEDE"/>
<path d="M109.297 155.349C109.297 155.349 110.64 154.421 121.332 155.504C132.007 156.569 156.335 156.569 154.51 167.019C152.685 177.451 125.171 206.669 123.122 211.43C121.073 216.191 101.979 215.521 100.24 213.836C98.8974 212.53 123.553 180.184 125.688 177.692C127.806 175.2 109.779 176.145 107.506 170.92C105.233 165.678 109.297 155.349 109.297 155.349Z" fill="#DEDEDE"/>
<path d="M72.3137 103.908C69.7655 105.077 66.3909 109.7 70.4026 116.609C76.8075 127.66 78.0127 138.609 88.2398 141.307C98.4842 144.005 119.369 144.04 123.019 143.404C126.686 142.768 126.772 136.512 124.965 136.065C123.157 135.618 102.306 132.507 98.3637 131.373C94.4553 130.256 81.2151 99.8175 72.3137 103.908Z" fill="#FAD000"/>
<path d="M120.867 142.699C124.121 143.077 132.282 143.937 133.091 140.173C133.453 138.523 137.068 140.138 140.236 139.468C143.404 138.798 134.692 132.421 132.265 134.02C129.493 135.841 128.012 136.924 125.154 137.268C123.845 137.423 123.759 137.32 121.521 137.491C117.819 137.784 117.682 142.321 120.867 142.699Z" fill="#FBD3AE"/>
<path d="M156.352 143.404H188.221C188.927 143.404 189.547 142.906 189.685 142.218L197.106 108.532C197.312 107.586 196.589 106.71 195.642 106.71H163.79C163.084 106.71 162.464 107.208 162.326 107.896L154.906 141.582C154.682 142.51 155.405 143.404 156.352 143.404Z" fill="#DCDCDC"/>
<path d="M131.955 139.296H166.717C167.544 139.296 168.232 139.967 168.232 140.809V141.909C168.232 142.734 167.561 143.421 166.717 143.421H131.955C131.129 143.421 130.44 142.751 130.44 141.909V140.809C130.457 139.967 131.129 139.296 131.955 139.296Z" fill="#DCDCDC"/>
<path d="M126.824 204.16C126.704 204.16 126.583 204.126 126.48 204.057C123.759 202.338 112.775 195.945 112.671 195.876C112.362 195.704 112.258 195.309 112.448 194.999C112.62 194.69 113.016 194.587 113.326 194.776C113.429 194.845 124.414 201.256 127.169 202.974C127.478 203.163 127.565 203.559 127.375 203.868C127.255 204.057 127.048 204.16 126.824 204.16Z" fill="#B1B1B1"/>
<path d="M142.32 186.354C142.199 186.354 142.079 186.32 141.976 186.251C141.941 186.217 137.861 183.639 134.142 180.39C130.492 177.194 113.567 165.06 113.395 164.939C113.102 164.733 113.033 164.338 113.24 164.046C113.446 163.753 113.86 163.685 114.135 163.891C114.841 164.389 131.284 176.18 134.985 179.428C138.618 182.608 142.613 185.134 142.647 185.168C142.957 185.357 143.043 185.753 142.854 186.062C142.733 186.251 142.527 186.354 142.32 186.354Z" fill="#B1B1B1"/>
<path d="M69.1629 106.95C69.1629 106.95 63.55 122.504 66.477 143.043C69.404 163.564 72.3309 159.319 75.3268 163.427C78.3226 167.534 77.4273 170.525 81.0257 170.078C84.6242 169.631 92.9058 159.594 99.655 158.7C106.387 157.806 114.583 160.213 118.37 156.38C122.158 152.564 115.857 151.207 114.204 150.004C112.551 148.8 114.961 143.61 110.158 138.265C105.354 132.92 107.919 113.155 99.6722 106.555C91.4251 99.955 74.2593 96.0879 69.1629 106.95Z" fill="#FAD000"/>
<path d="M104.665 144.641C99.6894 144.641 92.2514 144.126 85.8982 141.565C75.3267 137.303 68.8874 119.995 68.6291 119.273C68.5086 118.947 68.6807 118.569 69.0079 118.448C69.3522 118.328 69.7138 118.5 69.8343 118.826C69.9032 118.998 76.3425 136.323 86.3803 140.379C96.5386 144.47 110.02 143.146 110.158 143.129C110.519 143.095 110.829 143.352 110.863 143.696C110.898 144.057 110.64 144.366 110.295 144.401C110.071 144.418 107.868 144.641 104.665 144.641Z" fill="#E7C20E"/>
<path d="M118.939 135.515C118.904 135.515 118.87 135.515 118.835 135.498C118.68 135.464 103.168 132.851 97.2792 132.147C93.4225 131.682 87.207 120.614 86.5183 119.342C86.3461 119.033 86.4666 118.638 86.7765 118.466C87.0864 118.294 87.4824 118.414 87.6546 118.723C90.1512 123.261 95.0237 130.582 97.4341 130.875C103.357 131.579 118.904 134.209 119.059 134.243C119.404 134.295 119.645 134.639 119.593 134.982C119.524 135.292 119.249 135.515 118.939 135.515Z" fill="#E7C20E"/>
<path d="M82.3342 162.344C82.1104 162.344 81.9038 162.241 81.7833 162.035C81.5939 161.725 81.6972 161.33 82.0071 161.141C82.0588 161.107 87.6889 157.738 94.3348 155.366C98.8458 153.751 100.843 154.026 102.961 154.301C104.028 154.438 105.147 154.593 106.68 154.49C107.093 154.455 107.334 154.747 107.368 155.091C107.386 155.452 107.127 155.744 106.766 155.779C105.096 155.882 103.873 155.71 102.806 155.572C100.774 155.297 99.0179 155.074 94.7997 156.569C88.2743 158.89 82.7647 162.207 82.713 162.241C82.5581 162.31 82.4376 162.344 82.3342 162.344Z" fill="#E7C20E"/>
<path d="M94.6793 99.302C94.6793 99.302 91.6835 99.4567 91.6491 102.757C91.6318 105.18 90.4266 106.125 88.6704 106.074C88.3605 106.056 88.0506 106.108 87.7235 106.125C84.3144 106.314 80.8193 103.839 82.2311 100.746C83.7118 97.4973 85.3647 93.1318 86.656 87.821C86.6904 87.821 87.9129 97.652 94.6793 99.302Z" fill="#F0C297"/>
<path d="M91.8556 98.6147C91.8556 98.6147 97.0037 101.726 100.878 94.9023C103.77 89.7806 104.235 86.6182 104.597 83.8339C104.958 81.0496 105.32 71.6139 99.5863 70.8405C93.8701 70.0499 86.4149 76.4262 85.8468 83.4901C85.2614 90.5368 86.7593 95.3148 91.8556 98.6147Z" fill="#FBD3AE"/>
<path d="M102.995 86.2226C103.288 85.3632 103.012 84.5039 102.375 84.2805C101.738 84.057 100.981 84.5726 100.688 85.4148C100.395 86.2742 100.671 87.1335 101.308 87.3569C101.945 87.5804 102.702 87.0819 102.995 86.2226Z" fill="#292E4E"/>
<path d="M95.1098 86.2226C95.4025 85.3632 95.127 84.5039 94.49 84.2805C93.8529 84.057 93.0954 84.5726 92.8027 85.4148C92.51 86.2742 92.7855 87.1335 93.4225 87.3569C94.0596 87.5804 94.8171 87.0819 95.1098 86.2226Z" fill="#292E4E"/>
<path d="M97.0035 93.407C95.8327 93.407 94.8169 92.8398 94.2487 92.3414C93.9732 92.1008 93.956 91.7055 94.1971 91.4305C94.4381 91.1727 94.8341 91.1383 95.1096 91.3617C95.3162 91.5336 97.124 93.0117 98.863 91.207C99.104 90.9492 99.5172 90.9492 99.7755 91.1898C100.034 91.4305 100.051 91.843 99.7927 92.1008C98.8802 93.0804 97.8988 93.407 97.0035 93.407Z" fill="#E8AF7B"/>
<path d="M97.1069 91.0351C96.9864 91.0351 96.8487 91.0179 96.7454 90.9835C96.401 90.8976 96.1944 90.5366 96.2805 90.1929C96.3666 89.8492 96.7282 89.6429 97.0725 89.7289C97.1586 89.7632 97.5202 89.6773 97.8301 89.3679C98.0367 89.1445 98.2605 88.7664 98.1056 88.182C97.6062 86.4461 98.3982 83.4212 98.4327 83.3009C98.5188 82.9572 98.8631 82.7509 99.2247 82.8369C99.569 82.9228 99.7756 83.2837 99.6896 83.6275C99.4829 84.4009 99.0353 86.6696 99.3624 87.8211C99.6207 88.7148 99.4141 89.6085 98.777 90.2617C98.2777 90.7601 97.6579 91.0351 97.1069 91.0351Z" fill="#E8AF7B"/>
<path d="M104.045 70.2216C104.045 65.667 81.3183 58.0532 77.8404 75.6699C75.8776 85.6555 77.5649 85.3805 74.2592 88.4226C69.8515 92.496 73.7943 95.5381 69.0251 98.288C64.2558 101.055 62.448 104.527 61.7249 107.672C60.313 113.842 61.3633 118.105 63.8082 118.826C68.147 120.081 67.8026 115.252 69.6277 113.12C73.5016 108.617 78.8046 114.598 82.6096 112.055C84.6929 110.663 85.4849 108.617 83.0401 104.493C81.0773 101.193 85.3472 100.539 86.2769 96.2427C87.0862 92.5303 85.7604 86.6524 86.8279 81.9259C88.4119 74.948 104.045 79.2963 104.045 70.2216Z" fill="#454545"/>
<path d="M87.0691 82.3556C87.0691 82.3556 85.3645 80.3447 83.3329 80.9635C79.8722 82.0119 80.8191 90.382 86.6558 89.6257L87.0691 82.3556Z" fill="#FBD3AE"/>
<path d="M83.1606 86.2915C82.8335 86.2915 82.5408 86.0337 82.5236 85.7072C82.4203 84.5041 82.6957 83.6447 83.35 83.1635C84.3142 82.4588 85.6227 82.9401 85.7605 82.9916C86.0876 83.1291 86.2598 83.4901 86.122 83.8338C85.9843 84.1604 85.6227 84.315 85.2784 84.1947C85.0718 84.1088 84.4347 83.9541 84.1076 84.1947C83.8493 84.3838 83.746 84.8822 83.7977 85.5869C83.8321 85.9478 83.5566 86.2572 83.2123 86.2915C83.1951 86.2915 83.1778 86.2915 83.1606 86.2915Z" fill="#E8AF7B"/>
<path d="M88.3087 108.995C87.9643 108.995 87.6716 108.72 87.6716 108.359C87.6544 107.998 87.9471 107.706 88.2915 107.706C88.4464 107.706 92.1654 107.569 92.613 104.458C92.6647 104.114 92.9918 103.856 93.3362 103.908C93.6977 103.96 93.9388 104.286 93.8871 104.63C93.405 107.998 90.0304 108.961 88.3087 108.995Z" fill="#E7C20E"/>
<path d="M104.769 131.253C104.631 131.253 104.493 131.201 104.373 131.115C98.3466 126.337 98.381 119.325 98.3982 119.033C98.3982 118.672 98.7598 118.431 99.0525 118.397C99.4141 118.397 99.6895 118.689 99.6895 119.05C99.6895 119.119 99.6723 125.736 105.182 130.118C105.457 130.342 105.509 130.737 105.285 131.029C105.147 131.167 104.958 131.253 104.769 131.253Z" fill="#E7C20E"/>
<path d="M128.322 175.423L127.754 174.272L131.989 172.158C132.299 172.003 132.695 172.123 132.85 172.45C133.005 172.776 132.885 173.155 132.558 173.309L128.322 175.423Z" fill="#B1B1B1"/>
<path d="M224.258 233.619H222.915C222.381 233.619 221.968 233.189 221.95 232.673L221.09 147.563H226.065L225.205 232.673C225.205 233.189 224.774 233.619 224.258 233.619Z" fill="#F9EDE5"/>
<path d="M133.797 233.619H132.454C131.92 233.619 131.507 233.189 131.49 232.673L130.629 147.563H135.605L134.744 232.673C134.761 233.189 134.331 233.619 133.797 233.619Z" fill="#F9EDE5"/>
<path d="M234.846 143.404H121.865C121.228 143.404 120.712 143.919 120.712 144.555V146.858C120.712 147.494 121.228 148.01 121.865 148.01H234.829C235.466 148.01 235.983 147.494 235.983 146.858V144.555C236 143.919 235.483 143.404 234.846 143.404Z" fill="#212440"/>
<path d="M140.684 138.849C140.495 138.849 140.306 138.763 140.185 138.609L139.324 137.543C139.1 137.268 139.152 136.856 139.427 136.632C139.703 136.409 140.116 136.46 140.34 136.735L141.201 137.801C141.425 138.076 141.373 138.488 141.098 138.712C140.977 138.798 140.822 138.849 140.684 138.849Z" fill="#E8AF7B"/>
<path d="M155.044 142.991C155.009 142.991 154.958 142.991 154.923 142.974C154.579 142.906 154.338 142.562 154.407 142.218L154.854 139.932C154.923 139.588 155.25 139.348 155.612 139.417C155.956 139.485 156.197 139.829 156.128 140.173L155.681 142.459C155.629 142.785 155.354 142.991 155.044 142.991Z" fill="#BCBCBC"/>
<path d="M174.034 122.316C173.38 124.378 174.362 126.526 176.238 127.128C178.115 127.73 180.164 126.526 180.818 124.464C181.472 122.402 180.491 120.253 178.614 119.652C176.738 119.067 174.689 120.253 174.034 122.316Z" fill="#BFBFBF"/>
<path d="M216.1 134.087C216.1 134.087 211.899 130.65 212.002 128.828C212.105 127.006 215.721 131.458 215.721 131.458C215.721 131.458 213.448 125.889 214.826 124.411C216.203 122.916 216.909 130.873 216.909 130.873C216.909 130.873 217.115 124.084 218.786 123.637C220.456 123.191 218.355 130.873 218.355 130.873C218.355 130.873 220.611 124.651 222.005 124.961C223.4 125.27 219.801 131.183 219.801 131.183C219.801 131.183 222.229 127.848 223.52 127.951C224.812 128.054 219.87 133.812 219.87 133.812C219.87 133.812 218.682 134.74 216.1 134.087Z" fill="#74B572"/>
<path d="M219.25 143.78H215.359C215.101 143.78 214.86 143.591 214.808 143.334L212.88 133.967C212.811 133.623 213.069 133.296 213.431 133.296H221.161C221.523 133.296 221.781 133.623 221.712 133.967L219.784 143.334C219.732 143.591 219.509 143.78 219.25 143.78Z" fill="#D76954"/>
</g>
</g>
<defs>
<filter id="filter0_dd" x="-54.3887" y="-44" width="394.083" height="435.331" filterUnits="userSpaceOnUse" color-interpolation-filters="sRGB">
<feFlood flood-opacity="0" result="BackgroundImageFix"/>
<feColorMatrix in="SourceAlpha" type="matrix" values="0 0 0 0 0 0 0 0 0 0 0 0 0 0 0 0 0 0 127 0"/>
<feOffset dy="11"/>
<feGaussianBlur stdDeviation="27.5"/>
<feColorMatrix type="matrix" values="0 0 0 0 0 0 0 0 0 0 0 0 0 0 0 0 0 0 0.07 0"/>
<feBlend mode="normal" in2="BackgroundImageFix" result="effect1_dropShadow"/>
<feColorMatrix in="SourceAlpha" type="matrix" values="0 0 0 0 0 0 0 0 0 0 0 0 0 0 0 0 0 0 127 0"/>
<feOffset dy="13"/>
<feGaussianBlur stdDeviation="9"/>
<feColorMatrix type="matrix" values="0 0 0 0 0 0 0 0 0 0 0 0 0 0 0 0 0 0 0.15 0"/>
<feBlend mode="normal" in2="effect1_dropShadow" result="effect2_dropShadow"/>
<feBlend mode="normal" in="SourceGraphic" in2="effect2_dropShadow" result="shape"/>
</filter>
<clipPath id="clip0">
<rect x="0.611328" width="284.083" height="325.331" fill="white"/>
</clipPath>
<clipPath id="clip1">
<rect x="50" y="64.6187" width="186" height="169" fill="white"/>
</clipPath>
</defs>
</svg>
