<svg width="285" height="326" viewBox="0 0 285 326" fill="none" xmlns="http://www.w3.org/2000/svg">
<g clip-path="url(#clip0)">
<g filter="url(#filter0_ddi)">
<rect width="284.083" height="325.331" rx="8" fill="white"/>
<rect width="284.083" height="325.331" rx="8" fill="url(#paint0_linear)" fill-opacity="0.1" style="mix-blend-mode:overlay"/>
</g>
<path fill-rule="evenodd" clip-rule="evenodd" d="M104.458 159.349C72.2568 156.115 45.6038 132.817 33.9253 103.119C22.2467 73.4206 66.2167 48.1223 97.8864 46.6729C129.556 45.2235 154.003 73.0103 154.003 104.66C154.003 136.309 136.659 162.582 104.458 159.349Z" fill="#FAD000"/>
<path d="M81.656 271C82.896 271 83.9693 271.207 84.876 271.62C85.796 272.033 86.5027 272.62 86.996 273.38C87.4893 274.14 87.736 275.04 87.736 276.08C87.736 277.107 87.4893 278.007 86.996 278.78C86.5027 279.54 85.796 280.127 84.876 280.54C83.9693 280.94 82.896 281.14 81.656 281.14H78.836V285H75.596V271H81.656ZM81.476 278.5C82.4493 278.5 83.1893 278.293 83.696 277.88C84.2027 277.453 84.456 276.853 84.456 276.08C84.456 275.293 84.2027 274.693 83.696 274.28C83.1893 273.853 82.4493 273.64 81.476 273.64H78.836V278.5H81.476ZM100.864 274.24V285H97.9044V283.72C97.4911 284.187 96.9978 284.547 96.4244 284.8C95.8511 285.04 95.2311 285.16 94.5644 285.16C93.1511 285.16 92.0311 284.753 91.2044 283.94C90.3778 283.127 89.9644 281.92 89.9644 280.32V274.24H93.0844V279.86C93.0844 281.593 93.8111 282.46 95.2644 282.46C96.0111 282.46 96.6111 282.22 97.0644 281.74C97.5178 281.247 97.7444 280.52 97.7444 279.56V274.24H100.864ZM110.115 274.08C111.115 274.08 112.022 274.313 112.835 274.78C113.662 275.233 114.308 275.88 114.775 276.72C115.242 277.547 115.475 278.513 115.475 279.62C115.475 280.727 115.242 281.7 114.775 282.54C114.308 283.367 113.662 284.013 112.835 284.48C112.022 284.933 111.115 285.16 110.115 285.16C108.635 285.16 107.508 284.693 106.735 283.76V285H103.755V270.16H106.875V275.38C107.662 274.513 108.742 274.08 110.115 274.08ZM109.575 282.6C110.375 282.6 111.028 282.333 111.535 281.8C112.055 281.253 112.315 280.527 112.315 279.62C112.315 278.713 112.055 277.993 111.535 277.46C111.028 276.913 110.375 276.64 109.575 276.64C108.775 276.64 108.115 276.913 107.595 277.46C107.088 277.993 106.835 278.713 106.835 279.62C106.835 280.527 107.088 281.253 107.595 281.8C108.115 282.333 108.775 282.6 109.575 282.6ZM117.564 270.16H120.684V285H117.564V270.16ZM123.579 274.24H126.699V285H123.579V274.24ZM125.139 272.74C124.566 272.74 124.099 272.573 123.739 272.24C123.379 271.907 123.199 271.493 123.199 271C123.199 270.507 123.379 270.093 123.739 269.76C124.099 269.427 124.566 269.26 125.139 269.26C125.712 269.26 126.179 269.42 126.539 269.74C126.899 270.06 127.079 270.46 127.079 270.94C127.079 271.46 126.899 271.893 126.539 272.24C126.179 272.573 125.712 272.74 125.139 272.74ZM134.795 285.16C133.648 285.16 132.615 284.927 131.695 284.46C130.788 283.98 130.075 283.32 129.555 282.48C129.048 281.64 128.795 280.687 128.795 279.62C128.795 278.553 129.048 277.6 129.555 276.76C130.075 275.92 130.788 275.267 131.695 274.8C132.615 274.32 133.648 274.08 134.795 274.08C135.928 274.08 136.915 274.32 137.755 274.8C138.608 275.267 139.228 275.94 139.615 276.82L137.195 278.12C136.635 277.133 135.828 276.64 134.775 276.64C133.961 276.64 133.288 276.907 132.755 277.44C132.221 277.973 131.955 278.7 131.955 279.62C131.955 280.54 132.221 281.267 132.755 281.8C133.288 282.333 133.961 282.6 134.775 282.6C135.841 282.6 136.648 282.107 137.195 281.12L139.615 282.44C139.228 283.293 138.608 283.96 137.755 284.44C136.915 284.92 135.928 285.16 134.795 285.16ZM145.751 274.08C147.418 274.08 148.698 274.48 149.591 275.28C150.484 276.067 150.931 277.26 150.931 278.86V285H148.011V283.66C147.424 284.66 146.331 285.16 144.731 285.16C143.904 285.16 143.184 285.02 142.571 284.74C141.971 284.46 141.511 284.073 141.191 283.58C140.871 283.087 140.711 282.527 140.711 281.9C140.711 280.9 141.084 280.113 141.831 279.54C142.591 278.967 143.758 278.68 145.331 278.68H147.811C147.811 278 147.604 277.48 147.191 277.12C146.778 276.747 146.158 276.56 145.331 276.56C144.758 276.56 144.191 276.653 143.631 276.84C143.084 277.013 142.618 277.253 142.231 277.56L141.111 275.38C141.698 274.967 142.398 274.647 143.211 274.42C144.038 274.193 144.884 274.08 145.751 274.08ZM145.511 283.06C146.044 283.06 146.518 282.94 146.931 282.7C147.344 282.447 147.638 282.08 147.811 281.6V280.5H145.671C144.391 280.5 143.751 280.92 143.751 281.76C143.751 282.16 143.904 282.48 144.211 282.72C144.531 282.947 144.964 283.06 145.511 283.06ZM156.735 275.66C157.108 275.14 157.608 274.747 158.235 274.48C158.875 274.213 159.608 274.08 160.435 274.08V276.96C160.088 276.933 159.855 276.92 159.735 276.92C158.842 276.92 158.142 277.173 157.635 277.68C157.128 278.173 156.875 278.92 156.875 279.92V285H153.755V274.24H156.735V275.66ZM174.392 274.08C175.392 274.08 176.299 274.313 177.112 274.78C177.939 275.233 178.586 275.88 179.052 276.72C179.519 277.547 179.752 278.513 179.752 279.62C179.752 280.727 179.519 281.7 179.052 282.54C178.586 283.367 177.939 284.013 177.112 284.48C176.299 284.933 175.392 285.16 174.392 285.16C173.019 285.16 171.939 284.727 171.152 283.86V288.88H168.032V274.24H171.012V275.48C171.786 274.547 172.912 274.08 174.392 274.08ZM173.852 282.6C174.652 282.6 175.306 282.333 175.812 281.8C176.332 281.253 176.592 280.527 176.592 279.62C176.592 278.713 176.332 277.993 175.812 277.46C175.306 276.913 174.652 276.64 173.852 276.64C173.052 276.64 172.392 276.913 171.872 277.46C171.366 277.993 171.112 278.713 171.112 279.62C171.112 280.527 171.366 281.253 171.872 281.8C172.392 282.333 173.052 282.6 173.852 282.6ZM181.841 274.24H184.961V285H181.841V274.24ZM183.401 272.74C182.828 272.74 182.361 272.573 182.001 272.24C181.641 271.907 181.461 271.493 181.461 271C181.461 270.507 181.641 270.093 182.001 269.76C182.361 269.427 182.828 269.26 183.401 269.26C183.974 269.26 184.441 269.42 184.801 269.74C185.161 270.06 185.341 270.46 185.341 270.94C185.341 271.46 185.161 271.893 184.801 272.24C184.441 272.573 183.974 272.74 183.401 272.74ZM191.476 285.16C190.583 285.16 189.71 285.053 188.856 284.84C188.003 284.613 187.323 284.333 186.816 284L187.856 281.76C188.336 282.067 188.916 282.32 189.596 282.52C190.276 282.707 190.943 282.8 191.596 282.8C192.916 282.8 193.576 282.473 193.576 281.82C193.576 281.513 193.396 281.293 193.036 281.16C192.676 281.027 192.123 280.913 191.376 280.82C190.496 280.687 189.77 280.533 189.196 280.36C188.623 280.187 188.123 279.88 187.696 279.44C187.283 279 187.076 278.373 187.076 277.56C187.076 276.88 187.27 276.28 187.656 275.76C188.056 275.227 188.63 274.813 189.376 274.52C190.136 274.227 191.03 274.08 192.056 274.08C192.816 274.08 193.57 274.167 194.316 274.34C195.076 274.5 195.703 274.727 196.196 275.02L195.156 277.24C194.21 276.707 193.176 276.44 192.056 276.44C191.39 276.44 190.89 276.533 190.556 276.72C190.223 276.907 190.056 277.147 190.056 277.44C190.056 277.773 190.236 278.007 190.596 278.14C190.956 278.273 191.53 278.4 192.316 278.52C193.196 278.667 193.916 278.827 194.476 279C195.036 279.16 195.523 279.46 195.936 279.9C196.35 280.34 196.556 280.953 196.556 281.74C196.556 282.407 196.356 283 195.956 283.52C195.556 284.04 194.97 284.447 194.196 284.74C193.436 285.02 192.53 285.16 191.476 285.16ZM203.601 285.16C202.468 285.16 201.448 284.927 200.541 284.46C199.648 283.98 198.948 283.32 198.441 282.48C197.935 281.64 197.681 280.687 197.681 279.62C197.681 278.553 197.935 277.6 198.441 276.76C198.948 275.92 199.648 275.267 200.541 274.8C201.448 274.32 202.468 274.08 203.601 274.08C204.735 274.08 205.748 274.32 206.641 274.8C207.535 275.267 208.235 275.92 208.741 276.76C209.248 277.6 209.501 278.553 209.501 279.62C209.501 280.687 209.248 281.64 208.741 282.48C208.235 283.32 207.535 283.98 206.641 284.46C205.748 284.927 204.735 285.16 203.601 285.16ZM203.601 282.6C204.401 282.6 205.055 282.333 205.561 281.8C206.081 281.253 206.341 280.527 206.341 279.62C206.341 278.713 206.081 277.993 205.561 277.46C205.055 276.913 204.401 276.64 203.601 276.64C202.801 276.64 202.141 276.913 201.621 277.46C201.101 277.993 200.841 278.713 200.841 279.62C200.841 280.527 201.101 281.253 201.621 281.8C202.141 282.333 202.801 282.6 203.601 282.6Z" fill="#015A8B"/>
<g clip-path="url(#clip1)">
<path d="M214.92 170.738C214.953 170.738 215.003 170.738 215.053 170.721C215.368 170.655 215.568 170.341 215.501 170.028C215.385 169.533 204.541 119.522 223.207 76.2616C223.339 75.9645 223.19 75.6344 222.908 75.5024C222.625 75.3703 222.277 75.5189 222.144 75.7995C203.329 119.406 214.256 169.78 214.372 170.275C214.405 170.556 214.654 170.738 214.92 170.738Z" fill="#30686E"/>
<path d="M208.344 165.819C208.642 165.819 208.892 165.588 208.925 165.291C208.958 164.812 212.778 116.98 193.115 93.9058C192.899 93.6582 192.534 93.6252 192.302 93.8398C192.053 94.0379 192.019 94.401 192.235 94.6485C211.582 117.376 207.812 164.713 207.762 165.192C207.729 165.506 207.978 165.786 208.294 165.819C208.31 165.819 208.327 165.819 208.344 165.819Z" fill="#30686E"/>
<path d="M219.221 102.753C212.329 92.8824 211.964 81.2627 218.407 76.8228C224.851 72.3664 235.678 76.7733 242.57 86.6434C249.462 96.5136 249.827 108.133 243.384 112.573C236.94 117.013 226.129 112.623 219.221 102.753Z" fill="#30686E"/>
<path d="M204.325 168.064C204.358 168.064 204.408 168.064 204.441 168.047C204.757 167.981 204.956 167.668 204.89 167.354C199.044 140.236 205.637 111.55 205.703 111.253C205.77 110.939 205.587 110.626 205.271 110.56C204.956 110.477 204.64 110.675 204.574 110.989C204.508 111.269 197.848 140.219 203.744 167.585C203.81 167.882 204.059 168.064 204.325 168.064Z" fill="#30686E"/>
<path d="M202.465 138.057C195.573 128.187 195.208 116.567 201.651 112.128C208.095 107.671 218.922 112.078 225.814 121.948C232.705 131.818 233.071 143.438 226.627 147.878C220.184 152.318 209.357 147.927 202.465 138.057Z" fill="#317A82"/>
<path d="M179.614 108.81C181.408 98.9563 188.067 91.9086 194.51 93.0475C200.954 94.2028 204.723 103.132 202.93 112.986C201.136 122.839 194.477 129.887 188.034 128.748C181.59 127.593 177.821 118.68 179.614 108.81Z" fill="#30686E"/>
<path d="M194.826 159.349H229.451C230.613 159.349 231.46 160.422 231.178 161.544L222.426 197.08C222.227 197.872 221.513 198.433 220.699 198.433H203.594C202.764 198.433 202.05 197.872 201.867 197.08L193.115 161.544C192.833 160.422 193.68 159.349 194.826 159.349Z" fill="#2B2E4E"/>
<path d="M226.279 166.974H199.542C199.193 166.974 198.911 166.694 198.911 166.347C198.911 166.001 199.193 165.72 199.542 165.72H226.279C226.628 165.72 226.91 166.001 226.91 166.347C226.91 166.71 226.628 166.974 226.279 166.974Z" fill="#1B1D38"/>
<path d="M101.165 215.335H180.361L192.003 132.759C192.003 132.759 199.941 69.577 177.405 66.4905C154.87 63.4041 102.643 63.6846 92.413 75.915C77.7494 93.4601 101.165 215.335 101.165 215.335Z" fill="#4B4B4B"/>
<path d="M101.165 215.335C101.165 215.335 83.1965 215.615 79.3106 207.594C75.4246 199.556 75.4246 163.112 73.1495 148.489C70.8744 133.848 94.5056 128.121 101.165 136.72C107.841 145.32 101.165 215.335 101.165 215.335Z" fill="#4B4B4B"/>
<path d="M180.362 215.335C180.362 215.335 198.33 215.615 202.216 207.594C206.102 199.556 206.102 163.112 208.377 148.489C210.652 133.848 187.021 128.121 180.362 136.72C173.702 145.32 180.362 215.335 180.362 215.335Z" fill="#4B4B4B"/>
<path d="M155.9 176.316C155.618 176.316 155.352 176.118 155.286 175.838C155.203 175.508 155.419 175.178 155.751 175.095C160.616 173.989 165.283 171.893 169.268 169.021C169.551 168.823 169.933 168.889 170.132 169.153C170.331 169.434 170.265 169.813 169.999 170.011C165.881 172.966 161.048 175.145 156.033 176.283C156 176.316 155.95 176.316 155.9 176.316Z" fill="#4B4B4B"/>
<path d="M113.57 171.117C109.966 171.002 106.363 170.209 103.108 168.79C102.792 168.658 102.643 168.295 102.792 167.981C102.925 167.668 103.29 167.519 103.606 167.651C106.728 168.988 110.182 169.764 113.603 169.863C113.952 169.879 114.218 170.16 114.201 170.506C114.184 170.853 113.919 171.117 113.57 171.117Z" fill="#4B4B4B"/>
<path d="M111.378 169.45C109.535 169.335 107.758 168.476 106.595 167.156C106.363 166.892 106.396 166.512 106.662 166.281C106.927 166.05 107.309 166.083 107.542 166.347C108.488 167.42 109.95 168.13 111.428 168.212C111.776 168.229 112.026 168.526 112.009 168.873C111.976 169.203 111.71 169.45 111.378 169.45Z" fill="#4B4B4B"/>
<path d="M182.487 210.515C182.172 210.515 181.906 210.284 181.873 209.971C179.714 191.023 179.78 171.827 182.055 152.895C182.089 152.549 182.388 152.318 182.753 152.351C183.102 152.384 183.334 152.697 183.301 153.044C181.026 171.876 180.976 190.973 183.118 209.839C183.151 210.185 182.919 210.482 182.57 210.515C182.537 210.515 182.504 210.515 182.487 210.515Z" fill="#303030"/>
<path d="M183.168 103.759C182.836 103.759 182.554 103.495 182.537 103.165C182.404 98.3125 181.491 93.526 179.83 88.954C179.714 88.6404 179.88 88.2773 180.212 88.1618C180.528 88.0462 180.893 88.2113 181.009 88.5414C182.72 93.2454 183.65 98.1639 183.799 103.149C183.816 103.495 183.533 103.776 183.201 103.792C183.185 103.759 183.168 103.759 183.168 103.759Z" fill="#303030"/>
<path d="M186.456 111.913C186.124 111.913 185.858 111.666 185.842 111.335L185.294 101.267C185.277 100.921 185.543 100.64 185.875 100.624C186.24 100.607 186.506 100.871 186.523 101.201L187.071 111.269C187.087 111.616 186.821 111.897 186.489 111.913C186.473 111.913 186.473 111.913 186.456 111.913Z" fill="#303030"/>
<path d="M95.1035 205.283C94.6883 205.234 94.4392 204.937 94.489 204.59C96.1331 191.023 95.0703 177.158 94.024 163.739C93.9908 163.393 94.2565 163.096 94.6053 163.079C94.954 163.046 95.2529 163.31 95.2695 163.657C96.2991 177.125 97.3786 191.056 95.7179 204.738C95.6847 205.052 95.419 205.283 95.1035 205.283Z" fill="#303030"/>
<path d="M139.061 177.818C138.779 177.818 138.53 177.637 138.463 177.34C138.38 177.01 138.579 176.68 138.912 176.597C139.094 176.548 157.926 171.893 163.024 167.75C163.29 167.536 163.689 167.569 163.904 167.833C164.12 168.097 164.087 168.493 163.821 168.708C158.507 173.048 140.008 177.62 139.21 177.802C139.161 177.818 139.111 177.818 139.061 177.818Z" fill="#303030"/>
<path d="M98.9064 158.227C98.9064 158.227 100.683 146.739 110 145.353C119.316 143.966 127.187 148.703 134.511 145.947C141.834 143.19 174.649 131.934 179.814 142.563C184.38 151.988 178.618 159.663 173.47 161.874C168.322 164.086 129.961 166.034 121.043 170.358C112.125 174.699 96.1663 176.795 98.9064 158.227Z" fill="#2B2E4E"/>
<path d="M109.236 150.04C104.569 151.427 100.268 156.048 100.6 167.437C100.999 181.004 113.786 206.059 111.278 212.149C108.771 218.24 105.881 222.036 101.281 225.585C96.6811 229.15 108.953 227.615 113.387 221.524C117.821 215.434 119.249 213.866 118.436 210.565C115.164 197.212 119.781 189.455 119 179.287C118.22 169.12 116.028 172.57 117.041 162.997C117.572 158.161 116.227 147.96 109.236 150.04Z" fill="#F0C297"/>
<path d="M176.957 148.059C177.771 152.846 175.496 158.722 165.084 163.459C152.679 169.103 124.414 168.806 120.013 173.741C115.613 178.677 113.487 182.918 112.308 188.596C111.129 194.274 107.077 182.654 110.614 176.019C114.151 169.384 114.932 167.403 118.253 166.661C131.754 163.657 136.703 156.114 146.219 152.318C155.734 148.521 153.592 151.988 161.779 146.838C165.947 144.23 175.745 140.913 176.957 148.059Z" fill="#FBD3AE"/>
<path d="M104.918 101.185C104.918 101.185 85.9532 125.233 90.6363 135.449C95.3193 145.666 115.729 138.354 123.966 141.54C132.203 144.725 134.644 148.456 136.321 146.59C137.998 144.725 130.01 139.394 130.758 139.015C131.505 138.635 134.627 141.986 135.507 140.632C136.387 139.262 130.143 135.35 124.779 135.449C119.415 135.548 102.111 130.977 102.361 128.748C102.61 126.52 116.592 114.834 115.264 109.388C113.919 103.924 108.389 99.5835 104.918 101.185Z" fill="#F0C297"/>
<path d="M147.398 107.655C147.398 107.655 151.367 130.366 159.155 132.594C166.943 134.822 181.341 130.762 185.045 132.594C188.748 134.426 195.058 134.855 193.763 130.135C192.468 125.414 189.694 123.434 186.141 123.434C182.57 123.434 181.491 127.345 175.247 125.299C167.973 122.922 165.382 123.5 165.1 122.146C164.087 117.112 161.463 109.883 157.312 107.126C153.143 104.37 147.248 103.99 147.398 107.655Z" fill="#FBD3AE"/>
<path d="M94.2068 115.445C94.2068 115.445 92.1144 113.266 94.8544 110.378C97.5945 107.489 106.977 94.4503 114.633 94.1862C122.288 93.9222 122.189 95.8368 131.273 93.8396C151.217 89.4492 156.282 96.7776 158.358 101.713C161.463 109.173 167.01 116.716 166.213 117.442C164.619 118.895 162.975 120.099 159.471 121.024C153.974 122.476 152.679 118.812 152.413 125.513C152.147 132.214 147.298 133.733 155.003 135.614C160.517 136.968 160.915 140.203 154.572 140.599C148.228 140.995 150.154 147.152 137.666 147.944C125.178 148.736 113.902 144.692 110.132 145.864C106.363 147.036 107.791 142.563 110.398 138.75C114.633 132.577 113.171 123.549 110.531 123.995C107.907 124.407 96.7642 118.928 94.2068 115.445Z" fill="#30686E"/>
<path d="M156.481 149.561H109.667C108.754 149.561 107.974 148.868 107.891 147.96L104.47 114.966C104.353 113.91 105.184 113.002 106.247 113.002H159.886C160.949 113.002 161.779 113.91 161.663 114.966L158.258 147.96C158.175 148.868 157.395 149.561 156.481 149.561Z" fill="#F9EDE5"/>
<path d="M136.886 87.8814C136.886 87.8814 136.421 93.0475 137.716 94.9786C139.011 96.9097 136.687 102.34 130.094 102.34C122.953 102.34 122.405 95.3417 123.617 93.8728C124.829 92.4038 123.982 87.4192 125.66 87.5017C127.32 87.6008 136.886 87.8814 136.886 87.8814Z" fill="#F0C297"/>
<path d="M143.661 78.3743C143.661 78.3743 142.133 99.8806 129.828 99.1709C120.877 98.6592 120.744 75.9976 120.744 75.9976C120.744 75.9976 122.338 67.3818 131.954 68.2071C141.569 69.0323 144.11 74.116 143.661 78.3743Z" fill="#FBD3AE"/>
<path d="M126.573 74.9412C126.573 74.9412 132.02 79.8103 136.022 79.9423C140.024 80.0579 142.349 79.1666 142.349 79.1666C142.349 79.1666 140.323 85.9667 142.2 86.1153C144.076 86.2638 147.248 80.2889 145.073 73.6868C141.087 61.5885 127.935 61.0603 124.398 68.5537C124.398 68.5537 116.46 69.5935 121.375 82.3356C121.375 82.3356 124.779 83.8376 126.573 74.9412Z" fill="#2E2E2E"/>
<path d="M136.952 88.7396C136.637 89.4988 136.886 90.3241 137.5 90.5717C138.115 90.8192 138.862 90.3901 139.177 89.6309C139.493 88.8716 139.244 88.0464 138.629 87.7988C138.015 87.5512 137.268 87.9638 136.952 88.7396Z" fill="#2B2E4E"/>
<path d="M128.101 87.4853C127.935 88.294 128.317 89.0532 128.964 89.1853C129.612 89.3173 130.276 88.7727 130.442 87.9639C130.608 87.1551 130.226 86.3959 129.579 86.2639C128.931 86.1318 128.267 86.6765 128.101 87.4853Z" fill="#2B2E4E"/>
<path d="M133.714 93.328C133.249 93.328 132.651 93.1795 131.937 92.6843C131.655 92.4863 131.572 92.1067 131.771 91.8261C131.97 91.5455 132.352 91.4795 132.634 91.661C133.315 92.1232 133.847 92.1562 134.063 91.9911C134.162 91.9086 134.179 91.7931 134.129 91.661C133.614 90.4066 133.515 87.5842 133.498 87.2706C133.481 86.924 133.764 86.6434 134.096 86.6269C134.395 86.6104 134.727 86.891 134.743 87.2211C134.777 88.0299 134.909 90.3076 135.275 91.1989C135.541 91.8261 135.358 92.5358 134.843 92.9649C134.694 93.064 134.312 93.328 133.714 93.328Z" fill="#E8AF7B"/>
<path d="M131.422 95.4739C130.675 95.4739 129.247 95.2923 127.968 94.104C127.719 93.8729 127.702 93.4768 127.935 93.2292C128.167 92.9816 128.566 92.9651 128.815 93.1962C130.143 94.4176 131.671 94.2195 131.721 94.203C132.053 94.1535 132.385 94.3846 132.435 94.7147C132.485 95.0448 132.252 95.3584 131.92 95.4244C131.904 95.4409 131.721 95.4739 131.422 95.4739Z" fill="#E8AF7B"/>
<path d="M122.737 82.4182C122.737 82.4182 122.355 79.0346 119.914 79.7113C116.742 80.6026 118.037 87.8154 122.737 86.9241V82.4182Z" fill="#FBD3AE"/>
<path d="M184.364 120.496V131.983C184.364 132.479 184.679 132.908 185.144 133.073C186.689 133.634 190.392 134.608 194.444 133.056C194.892 132.891 195.175 132.446 195.175 131.967V120.463C195.175 119.951 194.843 119.505 194.361 119.357C192.817 118.878 189.279 118.103 185.178 119.373C184.679 119.522 184.364 119.984 184.364 120.496Z" fill="#F9EDE5"/>
<path d="M183.65 124.325C183.65 124.325 185.692 123.301 186.987 124.704C188.283 126.091 189.097 128.517 187.901 128.88C186.722 129.26 185.908 126.223 185.526 126.421C185.144 126.619 184.497 129.739 183.633 129.689C182.786 129.639 181.873 126.735 183.65 124.325Z" fill="#FBD3AE"/>
<path d="M133.531 104.519C133.232 104.519 132.967 104.304 132.917 104.007C132.867 103.677 133.083 103.347 133.432 103.297C133.664 103.264 138.962 102.323 138.962 97.801C138.962 97.4544 139.244 97.1738 139.593 97.1738C139.941 97.1738 140.224 97.4544 140.224 97.801C140.224 103.38 133.714 104.502 133.647 104.519C133.598 104.519 133.564 104.519 133.531 104.519Z" fill="#265257"/>
<path d="M119.1 169.467C119.034 169.467 118.984 169.45 118.917 169.434C118.585 169.335 118.403 169.005 118.502 168.674C118.519 168.592 119.083 166.743 122.073 166.578C122.471 166.545 122.704 166.826 122.72 167.173C122.737 167.519 122.471 167.8 122.139 167.816C120.08 167.915 119.715 168.972 119.698 169.021C119.598 169.302 119.366 169.467 119.1 169.467Z" fill="#E8AF7B"/>
<path d="M193.83 120.116C193.83 119.703 192.003 119.373 189.744 119.373C187.486 119.373 185.659 119.703 185.659 120.116C185.659 120.529 187.486 120.859 189.744 120.859C192.003 120.859 193.83 120.529 193.83 120.116Z" fill="#EBD8CC"/>
<path d="M211.765 228.655C208.975 227.549 212.844 225.799 208.061 221.656C204.507 218.586 200.356 218.421 198.562 215.516C198.031 214.675 197.184 214.081 196.188 214.064C196.188 214.064 195.341 214.047 195.175 214.328C194.61 215.285 199.692 224.446 192.518 228.506C185.36 232.55 183.932 229.827 185.46 228.49C187.685 226.492 196.42 225.337 190.741 215.45C190.242 214.559 189.279 213.981 188.25 213.948C185.792 213.882 180.943 213.701 176.559 213.222C175.164 213.09 173.885 213.899 173.42 215.203C172.39 218.19 171.826 223.571 178.884 227.648C180.262 228.457 180.91 231.857 176.725 229.992C174.915 229.183 170.846 225.667 168.87 222.201C167.973 220.633 167.84 218.652 167.857 216.375C167.873 213.486 164.104 212.248 162.476 214.625C162.46 214.658 162.443 214.708 162.41 214.741C155.286 225.469 161.297 227.483 159.57 229.793C158.507 231.229 153.343 224.825 154.804 217.844C156.249 210.862 159.304 209.608 161.214 204.227C161.214 204.227 156.448 211.11 149.523 212.43C142.598 213.75 153.127 201.801 160.816 197.014C165.565 194.027 180.013 196.172 188.382 196.965C192.933 197.394 194.544 194.324 194.544 193.878C194.544 193.878 191.571 193.267 188.748 190.924C188.532 190.742 188.731 190.395 188.997 190.478C194.776 192.145 196.271 191.27 196.271 191.27C191.355 190.841 188.466 188.613 187.934 187.788C187.934 187.788 187.037 185.246 190.873 186.401C194.726 187.557 200.588 188.415 201.385 188.184C202.199 187.953 209.838 182.886 210.37 191.518C210.918 200.167 207.53 196.205 205.354 191.798C205.404 192.376 206.019 199.936 203.694 207.148C200.389 217.431 211.25 214.444 213.425 224.215C213.824 226.03 213.492 229.348 211.765 228.655Z" fill="#EAAA65"/>
<path d="M191.455 196.899C191.073 196.585 192.717 195.314 192.717 195.314C192.933 195.116 193.248 195.1 193.514 195.232C199.21 198.12 201.518 198.07 205.637 198.302C206.152 198.335 205.371 200.365 205.371 200.365C205.338 200.629 205.155 200.86 204.889 200.926C203.428 201.322 195.822 200.447 191.455 196.899Z" fill="#182149"/>
<path d="M201.252 191.171C200.937 191.584 200.389 191.699 200.024 191.419C199.658 191.138 199.625 190.594 199.941 190.181C200.256 189.768 200.804 189.653 201.169 189.933C201.535 190.197 201.568 190.759 201.252 191.171Z" fill="#182149"/>
<path d="M194.411 191.518C194.095 191.501 191.521 189.999 189.611 192.145C187.702 194.291 189.827 193.598 191.471 192.739C193.115 191.864 194.411 191.518 194.411 191.518Z" fill="#EA6247"/>
<path d="M132.02 134.311C133.542 134.311 134.777 133.084 134.777 131.571C134.777 130.057 133.542 128.831 132.02 128.831C130.497 128.831 129.263 130.057 129.263 131.571C129.263 133.084 130.497 134.311 132.02 134.311Z" fill="#F2E2D8"/>
</g>
</g>
<defs>
<filter id="filter0_ddi" x="-6" y="-2" width="296.083" height="337.331" filterUnits="userSpaceOnUse" color-interpolation-filters="sRGB">
<feFlood flood-opacity="0" result="BackgroundImageFix"/>
<feColorMatrix in="SourceAlpha" type="matrix" values="0 0 0 0 0 0 0 0 0 0 0 0 0 0 0 0 0 0 127 0"/>
<feOffset dy="4"/>
<feGaussianBlur stdDeviation="3"/>
<feColorMatrix type="matrix" values="0 0 0 0 0 0 0 0 0 0 0 0 0 0 0 0 0 0 0.05 0"/>
<feBlend mode="normal" in2="BackgroundImageFix" result="effect1_dropShadow"/>
<feColorMatrix in="SourceAlpha" type="matrix" values="0 0 0 0 0 0 0 0 0 0 0 0 0 0 0 0 0 0 127 0"/>
<feOffset dy="1"/>
<feGaussianBlur stdDeviation="1.5"/>
<feColorMatrix type="matrix" values="0 0 0 0 0 0 0 0 0 0 0 0 0 0 0 0 0 0 0.1 0"/>
<feBlend mode="normal" in2="effect1_dropShadow" result="effect2_dropShadow"/>
<feBlend mode="normal" in="SourceGraphic" in2="effect2_dropShadow" result="shape"/>
<feColorMatrix in="SourceAlpha" type="matrix" values="0 0 0 0 0 0 0 0 0 0 0 0 0 0 0 0 0 0 127 0" result="hardAlpha"/>
<feOffset dy="1"/>
<feComposite in2="hardAlpha" operator="arithmetic" k2="-1" k3="1"/>
<feColorMatrix type="matrix" values="0 0 0 0 1 0 0 0 0 1 0 0 0 0 1 0 0 0 0.1 0"/>
<feBlend mode="normal" in2="shape" result="effect3_innerShadow"/>
</filter>
<linearGradient id="paint0_linear" x1="0" y1="0" x2="0" y2="325.331" gradientUnits="userSpaceOnUse">
<stop stop-color="white" stop-opacity="0.5"/>
<stop offset="1" stop-color="white" stop-opacity="0.01"/>
</linearGradient>
<clipPath id="clip0">
<rect width="284.083" height="325.331" fill="white"/>
</clipPath>
<clipPath id="clip1">
<rect x="73" y="63.6187" width="175" height="167" fill="white"/>
</clipPath>
</defs>
</svg>
