<svg width="285" height="326" viewBox="0 0 285 326" fill="none" xmlns="http://www.w3.org/2000/svg">
<g clip-path="url(#clip0)">
<g filter="url(#filter0_ddi)">
<rect x="0.307129" width="284.083" height="325.331" rx="8" fill="white"/>
<rect x="0.307129" width="284.083" height="325.331" rx="8" fill="url(#paint0_linear)" fill-opacity="0.1" style="mix-blend-mode:overlay"/>
</g>
<path fill-rule="evenodd" clip-rule="evenodd" d="M162.649 201.272C121.474 197.123 87.3947 167.227 72.4619 129.119C57.5291 91.0106 113.751 58.5481 154.246 56.6883C194.74 54.8285 226 90.484 226 131.096C226 171.708 203.823 205.421 162.649 201.272Z" fill="#A4EDE4"/>
<path d="M47.7835 270C49.0235 270 50.0968 270.207 51.0035 270.62C51.9235 271.033 52.6301 271.62 53.1235 272.38C53.6168 273.14 53.8635 274.04 53.8635 275.08C53.8635 276.107 53.6168 277.007 53.1235 277.78C52.6301 278.54 51.9235 279.127 51.0035 279.54C50.0968 279.94 49.0235 280.14 47.7835 280.14H44.9635V284H41.7235V270H47.7835ZM47.6035 277.5C48.5768 277.5 49.3168 277.293 49.8235 276.88C50.3301 276.453 50.5835 275.853 50.5835 275.08C50.5835 274.293 50.3301 273.693 49.8235 273.28C49.3168 272.853 48.5768 272.64 47.6035 272.64H44.9635V277.5H47.6035ZM66.9919 273.24V284H64.0319V282.72C63.6186 283.187 63.1252 283.547 62.5519 283.8C61.9786 284.04 61.3586 284.16 60.6919 284.16C59.2786 284.16 58.1586 283.753 57.3319 282.94C56.5052 282.127 56.0919 280.92 56.0919 279.32V273.24H59.2119V278.86C59.2119 280.593 59.9386 281.46 61.3919 281.46C62.1386 281.46 62.7386 281.22 63.1919 280.74C63.6452 280.247 63.8719 279.52 63.8719 278.56V273.24H66.9919ZM76.2424 273.08C77.2424 273.08 78.149 273.313 78.9624 273.78C79.789 274.233 80.4357 274.88 80.9024 275.72C81.369 276.547 81.6024 277.513 81.6024 278.62C81.6024 279.727 81.369 280.7 80.9024 281.54C80.4357 282.367 79.789 283.013 78.9624 283.48C78.149 283.933 77.2424 284.16 76.2424 284.16C74.7624 284.16 73.6357 283.693 72.8624 282.76V284H69.8824V269.16H73.0024V274.38C73.789 273.513 74.869 273.08 76.2424 273.08ZM75.7024 281.6C76.5024 281.6 77.1557 281.333 77.6624 280.8C78.1824 280.253 78.4424 279.527 78.4424 278.62C78.4424 277.713 78.1824 276.993 77.6624 276.46C77.1557 275.913 76.5024 275.64 75.7024 275.64C74.9024 275.64 74.2424 275.913 73.7224 276.46C73.2157 276.993 72.9624 277.713 72.9624 278.62C72.9624 279.527 73.2157 280.253 73.7224 280.8C74.2424 281.333 74.9024 281.6 75.7024 281.6ZM83.691 269.16H86.811V284H83.691V269.16ZM89.7066 273.24H92.8266V284H89.7066V273.24ZM91.2666 271.74C90.6933 271.74 90.2266 271.573 89.8666 271.24C89.5066 270.907 89.3266 270.493 89.3266 270C89.3266 269.507 89.5066 269.093 89.8666 268.76C90.2266 268.427 90.6933 268.26 91.2666 268.26C91.8399 268.26 92.3066 268.42 92.6666 268.74C93.0266 269.06 93.2066 269.46 93.2066 269.94C93.2066 270.46 93.0266 270.893 92.6666 271.24C92.3066 271.573 91.8399 271.74 91.2666 271.74ZM100.922 284.16C99.7755 284.16 98.7422 283.927 97.8222 283.46C96.9155 282.98 96.2022 282.32 95.6822 281.48C95.1755 280.64 94.9222 279.687 94.9222 278.62C94.9222 277.553 95.1755 276.6 95.6822 275.76C96.2022 274.92 96.9155 274.267 97.8222 273.8C98.7422 273.32 99.7755 273.08 100.922 273.08C102.056 273.08 103.042 273.32 103.882 273.8C104.736 274.267 105.356 274.94 105.742 275.82L103.322 277.12C102.762 276.133 101.956 275.64 100.902 275.64C100.089 275.64 99.4155 275.907 98.8822 276.44C98.3489 276.973 98.0822 277.7 98.0822 278.62C98.0822 279.54 98.3489 280.267 98.8822 280.8C99.4155 281.333 100.089 281.6 100.902 281.6C101.969 281.6 102.776 281.107 103.322 280.12L105.742 281.44C105.356 282.293 104.736 282.96 103.882 283.44C103.042 283.92 102.056 284.16 100.922 284.16ZM111.879 273.08C113.545 273.08 114.825 273.48 115.719 274.28C116.612 275.067 117.059 276.26 117.059 277.86V284H114.139V282.66C113.552 283.66 112.459 284.16 110.859 284.16C110.032 284.16 109.312 284.02 108.699 283.74C108.099 283.46 107.639 283.073 107.319 282.58C106.999 282.087 106.839 281.527 106.839 280.9C106.839 279.9 107.212 279.113 107.959 278.54C108.719 277.967 109.885 277.68 111.459 277.68H113.939C113.939 277 113.732 276.48 113.319 276.12C112.905 275.747 112.285 275.56 111.459 275.56C110.885 275.56 110.319 275.653 109.759 275.84C109.212 276.013 108.745 276.253 108.359 276.56L107.239 274.38C107.825 273.967 108.525 273.647 109.339 273.42C110.165 273.193 111.012 273.08 111.879 273.08ZM111.639 282.06C112.172 282.06 112.645 281.94 113.059 281.7C113.472 281.447 113.765 281.08 113.939 280.6V279.5H111.799C110.519 279.5 109.879 279.92 109.879 280.76C109.879 281.16 110.032 281.48 110.339 281.72C110.659 281.947 111.092 282.06 111.639 282.06ZM122.862 274.66C123.236 274.14 123.736 273.747 124.362 273.48C125.002 273.213 125.736 273.08 126.562 273.08V275.96C126.216 275.933 125.982 275.92 125.862 275.92C124.969 275.92 124.269 276.173 123.762 276.68C123.256 277.173 123.002 277.92 123.002 278.92V284H119.882V273.24H122.862V274.66ZM140.7 273.08C142.033 273.08 143.106 273.48 143.92 274.28C144.746 275.08 145.16 276.267 145.16 277.84V284H142.04V278.32C142.04 277.467 141.853 276.833 141.48 276.42C141.106 275.993 140.566 275.78 139.86 275.78C139.073 275.78 138.446 276.027 137.98 276.52C137.513 277 137.28 277.72 137.28 278.68V284H134.16V269.16H137.28V274.36C137.693 273.947 138.193 273.633 138.78 273.42C139.366 273.193 140.006 273.08 140.7 273.08ZM152.328 273.08C153.995 273.08 155.275 273.48 156.168 274.28C157.061 275.067 157.508 276.26 157.508 277.86V284H154.588V282.66C154.001 283.66 152.908 284.16 151.308 284.16C150.481 284.16 149.761 284.02 149.148 283.74C148.548 283.46 148.088 283.073 147.768 282.58C147.448 282.087 147.288 281.527 147.288 280.9C147.288 279.9 147.661 279.113 148.408 278.54C149.168 277.967 150.335 277.68 151.908 277.68H154.388C154.388 277 154.181 276.48 153.768 276.12C153.355 275.747 152.735 275.56 151.908 275.56C151.335 275.56 150.768 275.653 150.208 275.84C149.661 276.013 149.195 276.253 148.808 276.56L147.688 274.38C148.275 273.967 148.975 273.647 149.788 273.42C150.615 273.193 151.461 273.08 152.328 273.08ZM152.088 282.06C152.621 282.06 153.095 281.94 153.508 281.7C153.921 281.447 154.215 281.08 154.388 280.6V279.5H152.248C150.968 279.5 150.328 279.92 150.328 280.76C150.328 281.16 150.481 281.48 150.788 281.72C151.108 281.947 151.541 282.06 152.088 282.06ZM166.692 273.08C167.692 273.08 168.598 273.313 169.412 273.78C170.238 274.233 170.885 274.88 171.352 275.72C171.818 276.547 172.052 277.513 172.052 278.62C172.052 279.727 171.818 280.7 171.352 281.54C170.885 282.367 170.238 283.013 169.412 283.48C168.598 283.933 167.692 284.16 166.692 284.16C165.212 284.16 164.085 283.693 163.312 282.76V284H160.332V269.16H163.452V274.38C164.238 273.513 165.318 273.08 166.692 273.08ZM166.152 281.6C166.952 281.6 167.605 281.333 168.112 280.8C168.632 280.253 168.892 279.527 168.892 278.62C168.892 277.713 168.632 276.993 168.112 276.46C167.605 275.913 166.952 275.64 166.152 275.64C165.352 275.64 164.692 275.913 164.172 276.46C163.665 276.993 163.412 277.713 163.412 278.62C163.412 279.527 163.665 280.253 164.172 280.8C164.692 281.333 165.352 281.6 166.152 281.6ZM174.14 273.24H177.26V284H174.14V273.24ZM175.7 271.74C175.127 271.74 174.66 271.573 174.3 271.24C173.94 270.907 173.76 270.493 173.76 270C173.76 269.507 173.94 269.093 174.3 268.76C174.66 268.427 175.127 268.26 175.7 268.26C176.274 268.26 176.74 268.42 177.1 268.74C177.46 269.06 177.64 269.46 177.64 269.94C177.64 270.46 177.46 270.893 177.1 271.24C176.74 271.573 176.274 271.74 175.7 271.74ZM187.096 283.48C186.789 283.707 186.409 283.88 185.956 284C185.516 284.107 185.049 284.16 184.556 284.16C183.276 284.16 182.282 283.833 181.576 283.18C180.882 282.527 180.536 281.567 180.536 280.3V275.88H178.876V273.48H180.536V270.86H183.656V273.48H186.336V275.88H183.656V280.26C183.656 280.713 183.769 281.067 183.996 281.32C184.236 281.56 184.569 281.68 184.996 281.68C185.489 281.68 185.909 281.547 186.256 281.28L187.096 283.48ZM193.187 273.08C194.854 273.08 196.134 273.48 197.027 274.28C197.921 275.067 198.367 276.26 198.367 277.86V284H195.447V282.66C194.861 283.66 193.767 284.16 192.167 284.16C191.341 284.16 190.621 284.02 190.007 283.74C189.407 283.46 188.947 283.073 188.627 282.58C188.307 282.087 188.147 281.527 188.147 280.9C188.147 279.9 188.521 279.113 189.267 278.54C190.027 277.967 191.194 277.68 192.767 277.68H195.247C195.247 277 195.041 276.48 194.627 276.12C194.214 275.747 193.594 275.56 192.767 275.56C192.194 275.56 191.627 275.653 191.067 275.84C190.521 276.013 190.054 276.253 189.667 276.56L188.547 274.38C189.134 273.967 189.834 273.647 190.647 273.42C191.474 273.193 192.321 273.08 193.187 273.08ZM192.947 282.06C193.481 282.06 193.954 281.94 194.367 281.7C194.781 281.447 195.074 281.08 195.247 280.6V279.5H193.107C191.827 279.5 191.187 279.92 191.187 280.76C191.187 281.16 191.341 281.48 191.647 281.72C191.967 281.947 192.401 282.06 192.947 282.06ZM206.508 284.16C205.361 284.16 204.328 283.927 203.408 283.46C202.501 282.98 201.788 282.32 201.268 281.48C200.761 280.64 200.508 279.687 200.508 278.62C200.508 277.553 200.761 276.6 201.268 275.76C201.788 274.92 202.501 274.267 203.408 273.8C204.328 273.32 205.361 273.08 206.508 273.08C207.641 273.08 208.628 273.32 209.468 273.8C210.321 274.267 210.941 274.94 211.328 275.82L208.908 277.12C208.348 276.133 207.541 275.64 206.488 275.64C205.675 275.64 205.001 275.907 204.468 276.44C203.935 276.973 203.668 277.7 203.668 278.62C203.668 279.54 203.935 280.267 204.468 280.8C205.001 281.333 205.675 281.6 206.488 281.6C207.555 281.6 208.361 281.107 208.908 280.12L211.328 281.44C210.941 282.293 210.321 282.96 209.468 283.44C208.628 283.92 207.641 284.16 206.508 284.16ZM213.125 273.24H216.245V284H213.125V273.24ZM214.685 271.74C214.111 271.74 213.645 271.573 213.285 271.24C212.925 270.907 212.745 270.493 212.745 270C212.745 269.507 212.925 269.093 213.285 268.76C213.645 268.427 214.111 268.26 214.685 268.26C215.258 268.26 215.725 268.42 216.085 268.74C216.445 269.06 216.625 269.46 216.625 269.94C216.625 270.46 216.445 270.893 216.085 271.24C215.725 271.573 215.258 271.74 214.685 271.74ZM224.26 284.16C223.127 284.16 222.107 283.927 221.2 283.46C220.307 282.98 219.607 282.32 219.1 281.48C218.594 280.64 218.34 279.687 218.34 278.62C218.34 277.553 218.594 276.6 219.1 275.76C219.607 274.92 220.307 274.267 221.2 273.8C222.107 273.32 223.127 273.08 224.26 273.08C225.394 273.08 226.407 273.32 227.3 273.8C228.194 274.267 228.894 274.92 229.4 275.76C229.907 276.6 230.16 277.553 230.16 278.62C230.16 279.687 229.907 280.64 229.4 281.48C228.894 282.32 228.194 282.98 227.3 283.46C226.407 283.927 225.394 284.16 224.26 284.16ZM224.26 281.6C225.06 281.6 225.714 281.333 226.22 280.8C226.74 280.253 227 279.527 227 278.62C227 277.713 226.74 276.993 226.22 276.46C225.714 275.913 225.06 275.64 224.26 275.64C223.46 275.64 222.8 275.913 222.28 276.46C221.76 276.993 221.5 277.713 221.5 278.62C221.5 279.527 221.76 280.253 222.28 280.8C222.8 281.333 223.46 281.6 224.26 281.6ZM225.1 268.98H228.46L224.84 271.86H222.4L225.1 268.98ZM238.786 273.08C240.119 273.08 241.192 273.48 242.006 274.28C242.832 275.08 243.246 276.267 243.246 277.84V284H240.126V278.32C240.126 277.467 239.939 276.833 239.566 276.42C239.192 275.993 238.652 275.78 237.946 275.78C237.159 275.78 236.532 276.027 236.066 276.52C235.599 277 235.366 277.72 235.366 278.68V284H232.246V273.24H235.226V274.5C235.639 274.047 236.152 273.7 236.766 273.46C237.379 273.207 238.052 273.08 238.786 273.08Z" fill="#015B8C"/>
<g clip-path="url(#clip1)">
<path d="M18.2354 215.14C18.2354 215.14 32.9223 210.725 45.6882 214.442C58.4541 218.16 69.2815 218.282 83.2 216.537C97.1185 214.791 107.754 215.35 120.572 216.31C138.315 217.636 137.093 214.983 163.026 215.298C188.96 215.612 191.667 217.252 204.659 214.826C219.608 212.017 232.479 212.819 246.398 214.216C260.316 215.612 269.223 212.243 267.86 210.952C266.516 209.678 260.508 208.928 256.736 203.849C252.964 198.77 249.052 197.549 246.153 193.535C243.254 189.521 239.185 184.146 232.951 183.465C226.716 182.784 213.514 184.53 198.442 184.006C183.354 183.483 168.632 183.832 160.145 184.53C151.657 185.228 140.306 182.784 129.915 184.303C119.524 185.821 101.065 183.587 88.1597 184.53C75.2715 185.472 76.4241 187.496 61.5451 186.886C46.6661 186.275 33.3065 187.496 31.0013 189.207C28.6786 190.935 30.425 198.299 21.9202 205.978C16.3842 210.969 13.8345 216.17 18.2354 215.14Z" fill="#B4C7DE"/>
<path d="M97.7999 210.62C97.5555 210.62 97.311 210.481 97.2062 210.237C97.0665 209.905 97.2062 209.521 97.538 209.381C102.777 207.078 110.234 206.135 117.01 206.921C117.377 206.956 117.621 207.287 117.586 207.654C117.551 208.02 117.254 208.264 116.853 208.23C110.304 207.479 103.091 208.387 98.0619 210.586C97.9746 210.603 97.8873 210.62 97.7999 210.62Z" fill="#94B2D6"/>
<path d="M165.297 205.245C159.778 205.245 153.701 205.158 148.357 203.971C148.008 203.884 147.781 203.535 147.851 203.186C147.938 202.837 148.27 202.61 148.636 202.697C154.312 203.954 160.896 203.954 166.711 203.937C167.078 203.937 167.375 204.233 167.375 204.582C167.375 204.931 167.078 205.245 166.729 205.245C166.257 205.245 165.786 205.245 165.297 205.245Z" fill="#94B2D6"/>
<path d="M171.392 205.106C170.99 205.106 170.588 205.106 170.187 205.088C169.82 205.071 169.54 204.774 169.558 204.408C169.575 204.059 169.855 203.779 170.222 203.779C171.811 203.814 173.417 203.779 174.972 203.64C175.321 203.605 175.653 203.884 175.688 204.233C175.723 204.6 175.443 204.914 175.094 204.949C173.854 205.053 172.632 205.106 171.392 205.106Z" fill="#94B2D6"/>
<path d="M47.9935 192.715C47.749 192.715 47.522 192.575 47.3997 192.348C47.2425 192.017 47.3822 191.633 47.7141 191.476C50.3336 190.219 53.3024 189.172 56.5157 188.352C56.8824 188.265 57.2317 188.474 57.319 188.823C57.4064 189.172 57.1968 189.521 56.8475 189.626C53.7041 190.429 50.8226 191.441 48.2729 192.662C48.1856 192.68 48.0808 192.715 47.9935 192.715Z" fill="#94B2D6"/>
<path d="M59.3449 190.673C59.0829 190.673 58.8384 190.516 58.7336 190.272C58.5939 189.94 58.7511 189.556 59.0829 189.417C60.0783 188.998 61.196 188.666 62.3835 188.422C62.7503 188.352 63.0821 188.579 63.1519 188.928C63.2218 189.277 62.9948 189.626 62.6455 189.696C61.5278 189.923 60.4975 190.219 59.5894 190.603C59.5195 190.656 59.4322 190.673 59.3449 190.673Z" fill="#94B2D6"/>
<path d="M224.131 193.744C222.961 193.744 221.791 193.71 220.621 193.605C218.456 193.43 214.474 192.854 212.169 191.092C211.89 190.865 211.82 190.464 212.047 190.167C212.274 189.87 212.675 189.835 212.972 190.045C214.474 191.196 217.303 192.017 220.744 192.296C223.922 192.558 227.17 192.366 230.296 192.191C230.68 192.156 230.96 192.453 230.995 192.802C231.012 193.169 230.733 193.465 230.383 193.5C228.323 193.622 226.227 193.744 224.131 193.744Z" fill="#94B2D6"/>
<path d="M233.527 192.854C233.195 192.854 232.916 192.61 232.881 192.278C232.828 191.912 233.09 191.598 233.457 191.545C234.732 191.388 236.024 191.336 237.334 191.388C237.701 191.406 237.98 191.702 237.963 192.069C237.945 192.435 237.683 192.732 237.282 192.697C236.042 192.645 234.819 192.697 233.614 192.854C233.579 192.854 233.544 192.854 233.527 192.854Z" fill="#94B2D6"/>
<path d="M242.625 208.212C240.652 208.212 238.679 208.003 236.88 207.567C236.531 207.479 236.303 207.13 236.391 206.781C236.478 206.432 236.827 206.223 237.177 206.293C241.49 207.322 247.061 206.991 250.746 205.472C251.078 205.333 251.462 205.49 251.602 205.821C251.741 206.153 251.584 206.537 251.252 206.677C248.825 207.689 245.716 208.212 242.625 208.212Z" fill="#94B2D6"/>
<path d="M246.607 206.083C246.345 206.083 246.101 205.926 245.996 205.664C245.874 205.333 246.031 204.949 246.38 204.827L249.436 203.657C249.768 203.535 250.152 203.692 250.275 204.041C250.397 204.373 250.24 204.757 249.891 204.879L246.834 206.048C246.765 206.066 246.695 206.083 246.607 206.083Z" fill="#94B2D6"/>
<path d="M123.925 207.392C123.82 207.392 123.733 207.375 123.628 207.322C121.987 206.502 119.455 206.345 116.765 206.24C116.398 206.223 116.119 205.926 116.137 205.56C116.154 205.193 116.398 204.861 116.818 204.931C119.647 205.053 122.336 205.228 124.205 206.153C124.537 206.31 124.659 206.711 124.502 207.025C124.397 207.252 124.17 207.392 123.925 207.392Z" fill="#94B2D6"/>
<path d="M83.1824 212.628C82.8331 212.628 82.5363 212.348 82.5188 211.999C82.5013 211.633 82.7982 211.336 83.1475 211.319C85.1383 211.249 87.0768 210.708 88.177 209.923C88.4739 209.713 88.8756 209.783 89.0851 210.062C89.2947 210.359 89.2248 210.76 88.9454 210.97C87.6182 211.93 85.4702 212.54 83.1999 212.628C83.1999 212.628 83.1999 212.628 83.1824 212.628Z" fill="#94B2D6"/>
<path d="M203.943 141.249C203.943 141.249 207.855 135.961 205.829 132.313C203.803 128.666 202.913 126.694 208.1 124.687C213.286 122.68 218.403 119.329 221.215 114.844C224.009 110.359 225.616 113.814 223.38 116.519C221.145 119.224 215.399 126.798 213.635 132.715C211.889 138.631 211.645 142.523 210.771 142.715C209.898 142.924 203.664 141.65 203.943 141.249Z" fill="#F0C297"/>
<path d="M202.616 141.912C202.616 141.912 203.891 135.472 200.486 133.029C197.098 130.586 195.439 129.189 199.281 125.175C203.105 121.161 206.301 115.926 206.912 110.673C207.523 105.42 210.457 107.846 209.584 111.249C208.711 114.652 206.772 123.954 207.715 130.062C208.658 136.17 210.125 139.783 209.409 140.324C208.728 140.865 202.546 142.401 202.616 141.912Z" fill="#FBD3AE"/>
<path d="M157.944 174.617C157.944 174.617 167.479 180.551 170.186 193.692C170.186 193.692 223.311 196.798 227.275 191.423C233.213 183.395 210.964 138.317 209.986 137.374C209.008 136.432 201.691 138.491 201.062 140.167C200.451 141.86 201.324 143.866 200.922 144.652C200.521 145.455 194.6 156.659 191.754 170.271C191.754 170.306 173.906 157.27 157.944 174.617Z" fill="#EAAA65"/>
<path d="M113.412 148.474C113.412 148.474 102.48 148.509 102.567 157.898C102.672 167.287 103.51 170.044 101.607 180.708C99.0919 194.948 102.026 197.392 108.103 196.467C114.076 195.559 112.871 175.507 114.111 176.345C116.363 177.863 109.937 187.898 116.608 189.626C126.3 192.121 122.022 202.261 133.513 196.065C137.442 193.936 164.72 196.763 171.636 193.936C178.551 191.109 170.955 169.259 161.123 170.655C151.78 171.982 146.226 166.676 144.882 161.772C143.537 156.868 141.895 144.722 129.374 147.671C116.887 150.638 113.412 148.474 113.412 148.474Z" fill="#F9EDE5"/>
<path d="M125.113 120.935C125.113 120.935 118.931 118.107 112.626 121.441C109.221 123.238 102.096 130.359 103.44 138.823C104.785 147.287 93.6084 143.448 97.5727 154.128C101.537 164.809 113.552 162.942 113.919 158.439C114.46 151.511 106.811 143.361 107.614 140.289C108.418 137.217 127.278 132.209 125.113 120.935Z" fill="#2B2E4E"/>
<path d="M124.799 150.795C124.799 150.795 123.314 155.804 123.262 160.237C123.227 163.43 120.31 165.839 117.149 165.333C113.936 164.809 111.841 161.493 113.011 158.457C113.482 157.218 113.622 155.804 113.115 154.216L124.799 150.795Z" fill="#F0C297"/>
<path d="M118.459 127.846C118.459 127.846 129.182 129.783 128.57 140.341C127.959 150.9 119.961 155.944 116.451 156.118C112.941 156.31 106.654 147.026 107.579 138.23C108.505 129.416 115.176 126.711 118.459 127.846Z" fill="#FBD3AE"/>
<path d="M119.088 123.849C119.088 123.849 117.01 134.041 125.305 138.404C133.6 142.767 123.017 146.17 124.624 150.027C126.231 153.884 116.189 158.055 119.874 163.256C123.559 168.457 137.495 169.155 144.271 161.65C151.046 154.146 139.014 149.416 137.722 147.532C136.429 145.647 143.275 136.607 136.377 128.317C132.779 124.006 121.69 115.961 119.088 123.849Z" fill="#2B2E4E"/>
<path d="M116.172 151.703C115.386 151.703 114.565 151.406 113.901 150.568C113.674 150.289 113.727 149.87 114.006 149.643C114.286 149.416 114.705 149.469 114.932 149.748C116.049 151.144 117.796 149.853 118.005 149.713C118.302 149.486 118.704 149.556 118.931 149.835C119.158 150.114 119.106 150.533 118.809 150.743C118.197 151.196 117.202 151.703 116.172 151.703Z" fill="#E8AF7B"/>
<path d="M119.961 142.156C120.153 141.266 120.817 140.638 121.463 140.777C122.109 140.917 122.476 141.737 122.301 142.645C122.109 143.535 121.446 144.163 120.799 144.024C120.153 143.901 119.769 143.064 119.961 142.156Z" fill="#2A2E4E"/>
<path d="M110.129 142.139C110.146 141.214 110.688 140.481 111.334 140.498C111.998 140.498 112.521 141.249 112.504 142.174C112.486 143.099 111.945 143.832 111.299 143.814C110.653 143.797 110.129 143.046 110.129 142.139Z" fill="#2A2E4E"/>
<path d="M116.748 149.172C116.573 149.172 116.398 149.137 116.224 149.085C115.857 148.963 114.652 148.387 114.827 146.153C115.036 143.622 115.525 141.336 115.56 141.231C115.63 140.882 115.997 140.655 116.346 140.725C116.695 140.795 116.922 141.144 116.853 141.511C116.853 141.528 116.364 143.814 116.154 146.258C116.067 147.287 116.364 147.741 116.643 147.846C116.818 147.898 116.992 147.828 117.08 147.689C117.272 147.374 117.673 147.287 117.988 147.479C118.302 147.671 118.389 148.073 118.197 148.387C117.865 148.875 117.324 149.172 116.748 149.172Z" fill="#E8AF7B"/>
<path d="M118.773 127.863C118.773 127.863 118.738 128.806 111.456 132.994C106.2 136.013 107.509 142.348 107.509 142.348C107.509 142.348 106.339 134.111 109.867 127.776C113.395 121.423 118.773 127.863 118.773 127.863Z" fill="#2B2E4E"/>
<path d="M105.92 146.135C105.92 146.135 104.279 149.312 108.837 153.954C113.377 158.596 111.613 163.378 104.069 181.511C97.6948 196.833 104.663 198.701 108.103 197.043C116.8 192.837 115.962 174.757 117.149 157.566C117.726 149.259 111.823 155.874 109.675 148.788C108.994 146.572 107.038 142.959 105.92 146.135Z" fill="#FBD3AE"/>
<path d="M126.999 143.552C128.902 143.221 131.836 149.085 126.946 153.36C119.646 159.748 121.009 161.109 128.186 179.311C134.124 194.373 129.898 198.753 125.881 197.758C116.52 195.437 115.857 174.041 117.621 156.188C118.179 150.498 121.567 155.926 123.873 148.875C124.589 146.659 125.34 143.849 126.999 143.552Z" fill="#FBD3AE"/>
<path d="M117.184 158.701C116.87 158.701 116.59 158.474 116.538 158.142C116.258 156.362 116.765 152.82 120.624 152.209C122.493 151.912 123.279 149.521 124.047 147.217C124.781 144.966 125.532 142.645 127.575 142.924C127.942 142.977 128.186 143.308 128.134 143.657C128.081 144.006 127.732 144.268 127.4 144.216C126.527 144.094 126.003 145.49 125.305 147.619C124.501 150.045 123.506 153.081 120.851 153.5C117.306 154.041 117.83 157.776 117.865 157.933C117.917 158.282 117.673 158.631 117.324 158.683C117.254 158.701 117.219 158.701 117.184 158.701Z" fill="#E8AF7B"/>
<path d="M116.87 156.257C116.573 156.257 116.311 156.065 116.241 155.769C116.101 155.21 115.473 153.709 114.372 153.465L114.041 153.395C112.05 152.959 110.164 152.54 109.535 150.289C109.011 148.421 108.068 146.729 108.068 146.711C107.893 146.397 107.998 145.996 108.313 145.821C108.627 145.647 109.029 145.751 109.203 146.065C109.238 146.135 110.233 147.898 110.792 149.94C111.194 151.371 112.277 151.668 114.32 152.121L114.652 152.191C116.765 152.662 117.463 155.332 117.498 155.437C117.586 155.786 117.376 156.135 117.027 156.24C116.974 156.257 116.922 156.257 116.87 156.257Z" fill="#E8AF7B"/>
<path d="M116.276 173.605C115.892 173.587 115.612 173.291 115.612 172.924C115.874 166.554 116.433 161.458 116.433 161.406C116.468 161.039 116.8 160.778 117.149 160.83C117.516 160.865 117.76 161.196 117.725 161.545C117.725 161.598 117.167 166.641 116.905 172.977C116.905 173.326 116.625 173.605 116.276 173.605Z" fill="#E8AF7B"/>
<path d="M133.216 195.891C133.129 195.891 133.024 195.874 132.936 195.821C132.605 195.664 132.465 195.28 132.622 194.949C132.657 194.879 136.342 186.868 139.223 168.352C139.276 168.003 139.608 167.758 139.974 167.811C140.324 167.863 140.568 168.195 140.516 168.561C137.617 187.305 133.967 195.193 133.81 195.525C133.687 195.751 133.46 195.891 133.216 195.891Z" fill="#E3CEB8"/>
<path d="M126.143 173.378C125.706 173.343 125.444 173.011 125.497 172.645C125.916 168.875 126.108 167.619 126.126 167.566C126.178 167.217 126.527 166.973 126.877 167.025C127.243 167.078 127.47 167.427 127.418 167.776C127.418 167.793 127.208 169.085 126.807 172.802C126.754 173.134 126.475 173.378 126.143 173.378Z" fill="#E3CEB8"/>
<path d="M204.659 174.669C204.485 174.669 204.31 174.652 204.135 174.6C202.162 174.006 198.634 173.151 193.116 172.401C192.749 172.348 192.504 172.017 192.557 171.668C192.609 171.319 192.924 171.057 193.29 171.109C198.896 171.877 202.476 172.75 204.502 173.36C204.729 173.43 204.904 173.308 204.956 173.256C205.026 173.203 205.166 173.029 205.113 172.767C202.686 161.196 201.236 146.118 201.219 145.961C201.184 145.594 201.446 145.28 201.813 145.245C202.162 145.21 202.494 145.472 202.529 145.839C202.546 145.996 203.978 161.004 206.388 172.488C206.528 173.134 206.318 173.762 205.847 174.198C205.515 174.512 205.096 174.669 204.659 174.669Z" fill="#E69A49"/>
<path d="M94.5687 199.364L63.4136 199.032C62.7151 199.032 62.1213 198.544 61.9816 197.863L55.066 164.826C54.8739 163.901 55.5899 163.046 56.5155 163.046L87.6706 163.378C88.3691 163.378 88.9629 163.866 89.1026 164.547L96.0182 197.584C96.2103 198.509 95.5118 199.381 94.5687 199.364Z" fill="#2B2E4E"/>
<path d="M118.459 195.594L84.4749 195.228C83.6541 195.21 82.9905 195.873 82.9905 196.676L82.973 197.758C82.9555 198.578 83.6192 199.242 84.4225 199.242L118.407 199.608C119.227 199.626 119.891 198.962 119.891 198.16L119.909 197.078C119.926 196.275 119.28 195.612 118.459 195.594Z" fill="#2B2E4E"/>
<path d="M204.013 133.552C203.856 133.552 203.681 133.5 203.559 133.378C201.376 131.301 202.179 129.242 202.913 128.422C203.157 128.16 203.577 128.142 203.839 128.369C204.1 128.614 204.135 129.015 203.891 129.294C203.769 129.434 202.703 130.76 204.467 132.418C204.729 132.662 204.747 133.081 204.485 133.343C204.362 133.483 204.188 133.552 204.013 133.552Z" fill="#E8AF7B"/>
<path d="M49.2681 208.317C49.2681 208.317 44.78 208.77 44.0814 205.978C43.3829 203.186 46.5787 202.854 47.4519 199.643C48.3251 196.414 48.6744 194.355 51.0145 194.722C52.2544 194.931 52.0274 197.078 51.5908 200.428C51.1717 203.779 55.1534 206.624 49.2681 208.317Z" fill="#F8AA6D"/>
<path d="M50.7349 194.163C50.7349 194.163 50.9619 189.94 55.7295 190.934C55.7295 190.917 54.4721 193.884 50.7349 194.163Z" fill="#4A8A8C"/>
<path d="M55.0659 201.51C55.0659 201.51 55.2929 197.287 60.0605 198.282C60.0605 198.264 58.7857 201.231 55.0659 201.51Z" fill="#4A8A8C"/>
<path d="M53.5116 209.957C51.7827 209.556 48.7441 207.27 50.3333 203.378C51.8177 199.748 55.2929 202.488 55.2929 202.488C55.2929 202.488 59.0476 200.481 60.3748 203.378C61.6846 206.275 58.9428 211.231 53.5116 209.957Z" fill="#F46041"/>
<path d="M96.0184 198.247C95.7215 198.247 95.4421 198.038 95.3723 197.723L95.0405 196.1C94.9706 195.751 95.1976 195.402 95.5469 195.332C95.8962 195.263 96.2455 195.49 96.3153 195.839L96.6471 197.462C96.717 197.811 96.4899 198.16 96.1407 198.229C96.1057 198.247 96.0708 198.247 96.0184 198.247Z" fill="#1B1D38"/>
<path d="M75.9179 178.788C76.2322 180.655 75.1844 182.401 73.5777 182.68C71.9711 182.959 70.3993 181.65 70.085 179.783C69.7707 177.915 70.8185 176.17 72.4251 175.891C74.0318 175.612 75.6035 176.903 75.9179 178.788Z" fill="#1B1D38"/>
</g>
</g>
<defs>
<filter id="filter0_ddi" x="-5.69287" y="-2" width="296.083" height="337.331" filterUnits="userSpaceOnUse" color-interpolation-filters="sRGB">
<feFlood flood-opacity="0" result="BackgroundImageFix"/>
<feColorMatrix in="SourceAlpha" type="matrix" values="0 0 0 0 0 0 0 0 0 0 0 0 0 0 0 0 0 0 127 0"/>
<feOffset dy="4"/>
<feGaussianBlur stdDeviation="3"/>
<feColorMatrix type="matrix" values="0 0 0 0 0 0 0 0 0 0 0 0 0 0 0 0 0 0 0.05 0"/>
<feBlend mode="normal" in2="BackgroundImageFix" result="effect1_dropShadow"/>
<feColorMatrix in="SourceAlpha" type="matrix" values="0 0 0 0 0 0 0 0 0 0 0 0 0 0 0 0 0 0 127 0"/>
<feOffset dy="1"/>
<feGaussianBlur stdDeviation="1.5"/>
<feColorMatrix type="matrix" values="0 0 0 0 0 0 0 0 0 0 0 0 0 0 0 0 0 0 0.1 0"/>
<feBlend mode="normal" in2="effect1_dropShadow" result="effect2_dropShadow"/>
<feBlend mode="normal" in="SourceGraphic" in2="effect2_dropShadow" result="shape"/>
<feColorMatrix in="SourceAlpha" type="matrix" values="0 0 0 0 0 0 0 0 0 0 0 0 0 0 0 0 0 0 127 0" result="hardAlpha"/>
<feOffset dy="1"/>
<feComposite in2="hardAlpha" operator="arithmetic" k2="-1" k3="1"/>
<feColorMatrix type="matrix" values="0 0 0 0 1 0 0 0 0 1 0 0 0 0 1 0 0 0 0.1 0"/>
<feBlend mode="normal" in2="shape" result="effect3_innerShadow"/>
</filter>
<linearGradient id="paint0_linear" x1="0.307129" y1="0" x2="0.307129" y2="325.331" gradientUnits="userSpaceOnUse">
<stop stop-color="white" stop-opacity="0.5"/>
<stop offset="1" stop-color="white" stop-opacity="0.01"/>
</linearGradient>
<clipPath id="clip0">
<rect x="0.307129" width="284.083" height="325.331" fill="white"/>
</clipPath>
<clipPath id="clip1">
<rect x="16" y="107.619" width="252" height="110" fill="white"/>
</clipPath>
</defs>
</svg>
