<svg width="361" height="241" viewBox="0 0 361 241" fill="none" xmlns="http://www.w3.org/2000/svg">
<path fill-rule="evenodd" clip-rule="evenodd" d="M297.087 145.877C255.612 141.693 221.282 111.543 206.24 73.1131C191.198 34.6828 247.832 1.94581 288.623 0.0702447C329.414 -1.80532 360.903 34.1517 360.903 75.1074C360.903 116.063 338.563 150.061 297.087 145.877Z" fill="#A4EDE4"/>
<g clip-path="url(#clip0)">
<path d="M164.224 240.112C246.314 240.112 312.861 233.667 312.861 225.716C312.861 217.765 246.314 211.32 164.224 211.32C82.1346 211.32 15.5876 217.765 15.5876 225.716C15.5876 233.667 82.1346 240.112 164.224 240.112Z" fill="#CECECE"/>
<path d="M54.3085 229.965H51.9103C50.6613 229.965 49.712 228.915 49.8119 227.665L53.0594 194.824H65.3001L56.307 228.415C56.1071 229.365 55.2578 229.965 54.3085 229.965Z" fill="#525252"/>
<path d="M273.691 229.965H276.089C277.338 229.965 278.287 228.915 278.187 227.665L274.94 194.824H262.699L271.692 228.415C271.892 229.365 272.742 229.965 273.691 229.965Z" fill="#525252"/>
<path d="M313.161 91.7506C305.967 89.4012 297.124 93.5001 291.078 101.398C289.779 103.098 287.031 102.148 287.081 99.9985C287.131 98.3489 287.231 96.5993 287.331 94.7498C288.98 72.9554 285.133 57.3095 268.296 54.7102C162.326 38.1144 73.8439 49.9114 60.3542 54.7102C44.2664 60.4087 39.6699 72.9554 41.3187 94.7498C41.4686 96.9992 41.5685 99.0987 41.6185 100.998C41.6684 103.198 38.8706 104.047 37.5715 102.298C31.5261 93.8501 22.3332 89.3512 14.8389 91.8006C3.94717 95.3497 -2.49791 102.048 0.949457 120.143C3.84725 135.139 33.9243 194.274 36.6223 196.174C39.3702 198.073 288.68 198.073 291.378 196.174C294.076 194.274 324.203 135.139 327.051 120.143C330.548 101.998 324.053 95.2997 313.161 91.7506Z" fill="#2F365F"/>
<path d="M64.4009 190.574C62.852 190.474 61.8028 189.325 61.9028 187.925C64.3009 148.835 43.5667 112.844 43.3669 112.494C42.6674 111.295 43.0671 109.795 44.2662 109.095C45.4653 108.396 46.9641 108.795 47.6636 109.995C48.5629 111.495 69.3971 147.685 66.899 188.275C66.799 189.525 65.6999 190.574 64.4009 190.574Z" fill="#182149"/>
<path d="M268.296 162.982C268.196 162.982 268.146 162.982 268.046 162.982C266.697 162.832 265.698 161.632 265.798 160.233C270.045 118.993 285.283 107.296 285.933 106.796C287.032 105.947 288.581 106.197 289.43 107.346C290.229 108.446 290.029 109.996 288.93 110.845C288.78 110.945 274.741 122.092 270.744 160.733C270.644 161.982 269.545 162.982 268.296 162.982Z" fill="#182149"/>
<path d="M261.101 144.937H60.0044C58.6055 144.937 57.5063 143.837 57.5063 142.437C57.5063 141.038 58.6055 139.938 60.0044 139.938H261.101C262.5 139.938 263.599 141.038 263.599 142.437C263.599 143.837 262.5 144.937 261.101 144.937Z" fill="#182149"/>
<path d="M212.338 140.387C209.29 138.188 207.941 134.289 208.891 130.64C211.738 119.442 220.032 91.2497 232.023 90.9998C247.012 90.6999 279.187 102.897 278.538 112.244C277.888 121.592 262.6 154.733 254.156 155.683C247.511 156.383 222.68 147.735 212.338 140.387Z" fill="#E0D2C8"/>
<path d="M242.065 170.93H140.892C139.493 170.93 138.394 169.83 138.394 168.43C138.394 167.031 139.493 165.931 140.892 165.931H242.065C243.464 165.931 244.563 167.031 244.563 168.43C244.563 169.83 243.464 170.93 242.065 170.93Z" fill="#182149"/>
<path d="M239.568 120.643C238.918 120.643 238.219 120.393 237.719 119.843C236.77 118.843 236.87 117.244 237.869 116.294C238.369 115.794 250.859 104.497 266.947 107.896C268.296 108.196 269.145 109.496 268.896 110.845C268.596 112.195 267.297 113.095 265.948 112.795C252.358 109.996 241.416 119.893 241.317 119.993C240.767 120.443 240.167 120.643 239.568 120.643Z" fill="#D1BDA9"/>
<path d="M251.058 146.586C241.016 146.586 228.825 142.887 228.176 142.737C226.877 142.337 226.127 140.937 226.527 139.638C226.927 138.338 228.326 137.588 229.625 137.988C229.825 138.038 247.461 143.387 256.354 141.087C257.703 140.737 259.052 141.537 259.402 142.887C259.752 144.236 258.952 145.586 257.603 145.936C255.705 146.386 253.457 146.586 251.058 146.586Z" fill="#D1BDA9"/>
<path d="M110.666 145.636C114.213 144.336 116.462 140.887 116.562 137.088C116.761 125.541 116.112 96.1485 104.571 92.7493C90.1817 88.6004 55.9577 91.8996 54.1092 101.097C52.2606 110.295 58.3559 146.286 66.2499 149.385C72.5451 151.884 98.7751 150.035 110.666 145.636Z" fill="#FAD000"/>
<path d="M84.7857 123.041C84.1362 123.041 83.4867 122.792 83.0371 122.292L64.4512 103.646C63.5019 102.647 63.5019 101.097 64.4512 100.097C65.4505 99.1476 66.9993 99.0977 67.9985 100.097L86.5843 118.743C87.5336 119.742 87.5336 121.292 86.5843 122.292C86.0847 122.792 85.4352 123.041 84.7857 123.041Z" fill="#E8C103"/>
<path d="M95.5278 139.587C94.6785 139.587 93.8291 139.137 93.3794 138.338C92.68 137.138 93.1296 135.588 94.3287 134.938C102.073 130.49 110.666 127.091 111.016 126.941C112.315 126.441 113.764 127.041 114.264 128.34C114.763 129.64 114.164 131.089 112.865 131.589C112.765 131.639 104.221 135.038 96.8268 139.287C96.3772 139.437 95.9275 139.587 95.5278 139.587Z" fill="#E8C103"/>
</g>
<defs>
<clipPath id="clip0">
<rect y="46.1121" width="328" height="194" fill="white"/>
</clipPath>
</defs>
</svg>
