<svg width="564" height="470" viewBox="0 0 564 470" fill="none" xmlns="http://www.w3.org/2000/svg">
<path fill-rule="evenodd" clip-rule="evenodd" d="M328.948 468.845C196.886 455.412 87.5775 358.617 39.6817 235.235C-8.21411 111.854 172.114 6.75127 301.997 0.729733C431.88 -5.2918 532.143 110.149 532.143 241.638C532.143 373.127 461.011 482.278 328.948 468.845Z" fill="#FAD000"/>
<path d="M76.4642 317.416C76.4642 317.416 59.8816 410.748 62.3638 413.952C64.8461 417.156 72.7064 415.606 73.2925 412.884C73.9131 410.197 93.2537 320.207 93.2537 320.207L76.4642 317.416Z" fill="#464646"/>
<path d="M492.754 312.317C492.754 312.317 503.097 406.545 500.408 409.577C497.719 412.609 489.996 410.541 489.582 407.785C489.169 405.063 475.827 313.971 475.827 313.971L492.754 312.317Z" fill="#464646"/>
<path d="M534.056 251.991C534.056 251.991 562.877 347.838 560.188 350.87C557.499 353.901 549.776 351.834 549.363 349.078C548.949 346.322 517.163 253.61 517.163 253.61L534.056 251.991Z" fill="#464646"/>
<path d="M133.038 273.592C133.038 273.592 143.381 367.82 140.692 370.852C138.003 373.884 130.28 371.817 129.867 369.06C129.453 366.339 116.111 275.246 116.111 275.246L133.038 273.592Z" fill="#464646"/>
<path d="M71.1892 241.827C71.1892 241.827 67.2935 140.778 74.8091 132.716C82.3592 124.654 515.852 112.113 530.987 125.068C546.122 138.022 540.847 228.666 540.847 228.666C540.847 228.666 560.395 228.735 563.015 242C565.118 252.542 547.811 320.896 520.403 325.444C492.995 329.991 46.1601 329.922 36.3346 321.034C26.5436 312.145 24.0614 285.203 71.1892 241.827Z" fill="#009DC8"/>
<path d="M339.718 308.39C269.63 308.39 193.818 308.183 140.174 307.976C139.451 307.976 138.864 307.39 138.899 306.667C138.899 305.943 139.485 305.392 140.209 305.392C241.808 305.771 422.838 306.219 494.099 305.117C494.788 305.151 495.409 305.668 495.409 306.391C495.409 307.115 494.857 307.701 494.133 307.701C460.485 308.217 402.36 308.39 339.718 308.39Z" fill="#006D8B"/>
<path d="M116.111 307.873C88.5994 307.769 71.5686 307.666 71.5686 307.666C70.8446 307.666 70.293 307.08 70.293 306.357C70.293 305.633 70.879 305.082 71.603 305.082C71.603 305.082 88.6683 305.151 116.145 305.289C116.869 305.289 117.421 305.875 117.421 306.598C117.386 307.287 116.835 307.873 116.111 307.873Z" fill="#006D8B"/>
<path d="M81.7046 245.41C80.9806 245.41 80.429 244.825 80.3945 244.136C80.3945 243.412 80.9806 242.826 81.6701 242.826C85.2556 242.792 439.593 240.828 533.228 231.939C533.918 231.871 534.573 232.387 534.642 233.111C534.711 233.834 534.194 234.454 533.47 234.523C439.766 243.412 85.29 245.41 81.7046 245.41C81.7391 245.41 81.7391 245.41 81.7046 245.41Z" fill="#006D8B"/>
<path d="M360.852 239.863C360.852 239.863 355.991 265.841 352.991 273.971C349.992 282.102 350.957 287.167 356.542 287.58C362.127 287.994 367.678 286.34 381.33 288.407C394.982 290.474 402.36 289.337 400.395 286.064C398.43 282.791 370.194 279.587 370.746 273.661C371.298 267.736 377.71 245.893 379.606 240.587L360.852 239.863Z" fill="#FBD3AE"/>
<path d="M460.554 265.393C473.517 267.494 485.169 268.046 491.203 268.08C493.788 268.08 496.098 266.564 497.098 264.153C502.338 251.681 519.162 214.024 516.956 249.786C516.783 252.473 510.233 266.978 505.2 276.969C499.89 287.477 477.102 278.967 463.691 282.791C463.691 282.826 457.003 264.807 460.554 265.393Z" fill="#F0C297"/>
<path d="M179.166 180.364C179.166 180.364 176.788 192.388 183.269 190.906C183.269 190.906 176.788 206.789 154.068 206.1C154.068 206.1 157.688 197.487 154.792 184.188L179.166 180.364Z" fill="#F0C297"/>
<path d="M171.858 135.645C171.858 135.645 186.785 135.231 189.785 150.563C192.784 165.894 188.613 174.989 186.682 178.641C185.131 181.57 182.442 189.907 173.547 191.63C164.652 193.318 155.551 191.079 152.31 178.09C149.104 165.067 146.932 131.338 171.858 135.645Z" fill="#FBD3AE"/>
<path d="M151.517 156.282C151.517 156.282 148.794 151.252 142.691 153.043C136.589 154.835 142.278 174.748 151.862 171.234L151.517 156.282Z" fill="#FBD3AE"/>
<path d="M190.44 167.031C190.44 167.031 202.403 171.096 201.713 159.865C201.368 154.18 199.955 147.29 199.507 142.535C198.714 134.714 192.991 136.85 190.854 131.476C189.095 127.135 187.613 122.794 182.476 121.243C177.339 119.693 169.169 125.205 164.308 121.726C159.446 118.246 151.758 120.21 149.173 126.17C146.311 132.785 142.623 131.097 138.83 136.919C133.624 144.981 144.243 157.66 150.483 158.693C156.723 159.727 153.689 143.741 157.447 141.915C161.205 140.089 166.79 145.395 174.443 144.327C182.131 143.259 186.027 139.331 189.164 148.047C191.233 153.801 190.44 167.031 190.44 167.031Z" fill="#3A3A3A"/>
<path d="M172.168 182.707C169.858 182.707 167.238 181.845 164.79 179.33C164.307 178.814 164.307 177.987 164.824 177.504C165.342 177.022 166.134 177.022 166.652 177.539C171.409 182.431 176.236 178.917 176.443 178.779C176.994 178.366 177.822 178.469 178.27 179.02C178.683 179.606 178.58 180.398 178.028 180.846C176.787 181.742 174.65 182.707 172.168 182.707Z" fill="#E8AF7B"/>
<path d="M180.201 166.411C180.098 164.826 181.063 163.482 182.373 163.379C183.683 163.276 184.855 164.481 184.993 166.066C185.096 167.651 184.131 168.995 182.821 169.098C181.477 169.201 180.304 167.995 180.201 166.411Z" fill="#2A2E4E"/>
<path d="M162.101 164.412C161.894 162.828 162.79 161.415 164.101 161.243C165.411 161.071 166.652 162.207 166.859 163.758C167.065 165.343 166.169 166.755 164.859 166.927C163.549 167.134 162.308 165.997 162.101 164.412Z" fill="#2A2E4E"/>
<path d="M173.961 176.781C172.72 176.781 171.479 176.057 170.996 175.782C170.375 175.437 170.169 174.645 170.548 174.025C170.893 173.405 171.685 173.198 172.306 173.577C173.582 174.335 174.064 174.231 174.064 174.231C174.064 174.231 174.685 173.542 173.823 169.305C172.754 164.068 173.651 162.139 173.857 161.794C174.202 161.174 174.995 160.967 175.616 161.312C176.236 161.656 176.443 162.414 176.133 163.034C176.098 163.138 175.512 164.654 176.374 168.822C177.236 173.094 176.995 175.334 175.581 176.367C175.03 176.643 174.512 176.781 173.961 176.781Z" fill="#E8AF7B"/>
<path d="M149.138 162.759C148.69 162.759 148.277 162.552 148.035 162.139C147.518 161.277 146.794 160.209 145.863 159.417C145.001 158.693 144.036 158.245 143.14 158.211C142.416 158.177 141.864 157.556 141.933 156.833C141.968 156.109 142.657 155.558 143.278 155.627C145.174 155.73 146.656 156.695 147.553 157.488C148.759 158.521 149.621 159.83 150.242 160.829C150.621 161.45 150.414 162.242 149.828 162.621C149.587 162.724 149.38 162.759 149.138 162.759Z" fill="#E8AF7B"/>
<path d="M233.396 285.616C233.396 285.616 259.459 226.668 268.389 214.265C272.56 208.477 362.23 146.738 395.499 159.038C425.251 170.028 389.363 241 388.639 243.274C387.604 246.513 361.541 246.892 354.784 243.309C351.095 241.345 358.921 209.545 358.921 209.545C358.921 209.545 324.48 242.551 326.514 246.651C326.79 247.167 364.196 252.645 377.089 252.266C394.913 251.715 454.073 258.158 458.072 258.709C464.829 259.57 472.793 264.394 473.793 281.448C474.241 289.303 412.22 291.852 364.988 290.888C281.834 289.165 233.396 285.616 233.396 285.616Z" fill="#2B2E4E"/>
<path d="M156.344 203.241C156.344 203.241 165.928 202.586 176.857 195.937C187.785 189.287 186.682 172.233 202.885 167.375C219.123 162.552 250.151 174.748 249.668 179.365C249.186 183.947 229.914 199.623 231.293 203.551C232.672 207.478 257.77 216.505 269.768 208.787C281.765 201.07 272.077 219.502 269.044 230.424C266.01 241.345 267.596 283.584 257.805 286.926C249.737 289.647 195.577 282.24 168.238 277.279C162.273 276.211 152.069 281.172 145.277 277.555C136.003 272.593 125.592 257.71 137.038 235.867C148.449 214.024 146.587 205.48 156.344 203.241Z" fill="#015989"/>
<path d="M146.484 160.003C146.484 160.003 151.724 170.442 153.896 176.712C156.551 184.292 162.308 179.985 156.723 193.628C152.241 204.55 138.279 244.239 133.866 256.78C144.794 249.097 189.475 279.312 112.836 283.549C76.6711 285.548 114.835 244.377 145.277 190.528C149.966 182.328 136.003 147.772 146.484 160.003Z" fill="#FBD3AE"/>
<path d="M275.249 289.613L230.431 277.244C229.914 277.107 229.397 277.141 228.88 277.313L170.685 300.052C168.513 300.913 168.651 304.049 170.927 304.669L215.745 317.037C216.262 317.175 216.779 317.141 217.296 316.968L275.49 294.23C277.662 293.368 277.49 290.233 275.249 289.613Z" fill="#F9EDE5"/>
<path d="M197.197 172.543C197.197 172.543 230.535 167.789 260.666 195.144C295.348 226.668 236.568 263.808 230.259 282.481C223.915 301.155 218.02 307.356 216.262 297.606C214.504 287.89 223.536 276.59 219.261 280.242C214.986 283.894 215.365 286.96 213.538 286.926C212.366 286.891 213.435 279.518 222.536 270.871C241.291 253.024 232.913 241.931 244.566 224.498C257.287 205.48 203.989 197.659 197.3 191.113C188.544 182.638 190.164 176.471 197.197 172.543Z" fill="#FBD3AE"/>
<path d="M176.822 195.902C187.751 189.253 186.648 172.199 202.851 167.341C219.089 162.518 250.117 174.714 249.634 179.33C249.151 183.913 229.88 199.589 231.259 203.516C232.672 207.478 165.893 202.586 176.822 195.902Z" fill="#015989"/>
<path d="M219.433 316.141L281.282 291.542C281.799 291.336 282.213 290.888 282.351 290.336L297.486 233.111C297.865 231.698 296.451 230.458 295.107 231.009L233.258 255.608C232.741 255.815 232.327 256.263 232.189 256.814L217.054 314.04C216.675 315.452 218.054 316.658 219.433 316.141Z" fill="#F9EDE5"/>
<path d="M202.575 213.163C202.058 213.163 201.575 212.853 201.368 212.37C201.093 211.716 201.403 210.958 202.058 210.682C207.333 208.443 212.918 207.237 218.675 207.099C219.364 207.099 219.985 207.65 219.985 208.374C219.985 209.097 219.433 209.683 218.709 209.683C213.366 209.821 207.953 210.992 203.058 213.059C202.92 213.128 202.747 213.163 202.575 213.163Z" fill="#024A71"/>
<path d="M200.645 235.143C200.059 235.143 199.507 234.73 199.369 234.144C199.197 233.455 199.645 232.766 200.334 232.594C213.469 229.666 228.363 226.324 239.119 216.849C239.671 216.367 240.464 216.436 240.946 216.953C241.429 217.504 241.36 218.296 240.843 218.779C229.569 228.701 214.331 232.112 200.92 235.109C200.851 235.143 200.748 235.143 200.645 235.143Z" fill="#024A71"/>
<path d="M175.857 266.771C174.995 266.771 174.168 266.736 173.34 266.633C172.616 266.564 172.099 265.944 172.203 265.221C172.272 264.531 172.858 263.98 173.616 264.049C176.684 264.359 179.891 264.015 182.821 263.084C183.511 262.878 184.235 263.257 184.441 263.911C184.648 264.6 184.269 265.324 183.614 265.531C181.097 266.357 178.477 266.771 175.857 266.771Z" fill="#024A71"/>
<path d="M350.44 209.924C350.199 209.924 349.957 209.855 349.716 209.718C349.13 209.339 348.958 208.512 349.371 207.926C354.956 199.588 361.369 191.802 368.471 184.705C368.988 184.188 369.781 184.188 370.298 184.705C370.815 185.222 370.815 186.014 370.298 186.531C363.334 193.49 357.025 201.173 351.543 209.339C351.267 209.718 350.888 209.924 350.44 209.924Z" fill="#1B1D38"/>
<path d="M352.267 212.474C351.922 212.474 351.612 212.336 351.336 212.095C350.819 211.578 350.853 210.786 351.336 210.269C355.852 205.824 361.024 202.138 366.712 199.347C367.333 199.037 368.125 199.313 368.436 199.933C368.746 200.588 368.47 201.346 367.85 201.656C362.403 204.309 357.473 207.823 353.163 212.06C352.922 212.336 352.612 212.474 352.267 212.474Z" fill="#1B1D38"/>
<path d="M317.137 243.274C316.999 243.274 316.861 243.24 316.723 243.205C316.034 242.999 315.654 242.275 315.896 241.586C319.412 230.63 323.894 219.881 329.169 209.614C329.479 208.994 330.272 208.719 330.892 209.063C331.513 209.373 331.789 210.166 331.444 210.786C326.238 220.915 321.825 231.526 318.343 242.344C318.171 242.93 317.688 243.274 317.137 243.274Z" fill="#1B1D38"/>
<path d="M367.953 265.841C367.815 265.841 367.678 265.806 367.54 265.772C366.85 265.531 366.505 264.807 366.747 264.118C368.195 259.984 370.539 256.125 373.573 252.955C374.055 252.439 374.883 252.404 375.4 252.921C375.917 253.438 375.952 254.23 375.434 254.747C372.676 257.641 370.504 261.19 369.194 264.979C368.988 265.496 368.47 265.841 367.953 265.841Z" fill="#1B1D38"/>
<path d="M158.481 190.08C158.343 190.08 158.205 190.045 158.033 190.011C157.343 189.77 156.999 189.046 157.24 188.357C158.171 185.808 157.24 184.498 155.62 182.156C154.689 180.812 153.655 179.33 152.724 177.263C150.138 171.613 147.932 166.032 147.932 165.963C147.656 165.308 148.001 164.55 148.656 164.275C149.311 163.999 150.069 164.344 150.345 164.998C150.379 165.067 152.551 170.579 155.102 176.195C155.93 178.056 156.93 179.434 157.792 180.674C159.55 183.224 161.101 185.429 159.722 189.253C159.515 189.77 159.033 190.08 158.481 190.08Z" fill="#E8AF7B"/>
<path d="M388.88 289.544C388.88 289.544 381.847 287.821 375.503 276.865C368.85 265.358 365.195 250.268 360.196 255.918C355.197 261.569 378.778 304.738 385.467 320.31C389.121 328.854 383.571 344.634 393.327 377.432C398.809 395.83 396.361 415.055 394.154 417.018C387.294 423.048 392.465 426.837 395.775 425.7C405.876 422.255 410.186 378.466 414.805 376.502C421.528 373.643 424.458 385.322 428.078 396.45C431.698 407.578 425.906 413.573 429.802 415.502C433.698 417.432 438.559 414.193 437.249 399.206C436.559 391.145 431.353 372.781 431.353 372.781C431.353 372.781 451.108 395.52 471.793 381.153C472.62 380.568 472 379.293 471.034 379.603C463.346 382.118 449.108 382.807 433.594 363.617C433.594 363.617 409.944 302.533 413.564 294.367C418.253 283.79 413.736 271.009 401.67 269.217C401.67 269.217 390.155 242.241 386.018 245.548C381.881 248.89 393.81 267.942 392.155 268.769C390.5 269.596 381.95 264.669 379.502 268.494C377.744 271.284 375.676 276.487 388.88 289.544Z" fill="#646464"/>
<path d="M0.721708 361.067C1.79044 372.368 7.0307 418.086 8.09943 427.595C8.20286 428.629 8.99579 429.456 10.0301 429.628L72.3615 439.929C72.8097 439.998 73.2923 439.929 73.706 439.757L108.974 423.633C109.802 423.254 110.353 422.427 110.353 421.497V414.021C110.353 412.746 109.319 411.678 108.009 411.678H71.6375C70.4309 411.678 69.3966 410.748 69.2932 409.542L65.2596 358.415C65.1561 357.209 64.1564 356.279 62.9153 356.279H55.0204L2.96261 358.552C1.61807 358.587 0.618282 359.758 0.721708 361.067Z" fill="#EAAA65"/>
<path d="M399.223 309.044C398.602 309.044 397.981 308.906 397.395 308.596C395.396 307.632 394.189 305.22 394.12 302.188C393.913 292.92 394.12 280.449 394.12 280.345C394.12 279.622 394.706 279.07 395.43 279.07C396.154 279.07 396.74 279.656 396.74 280.38C396.74 280.518 396.534 292.92 396.74 302.119C396.809 304.531 397.775 305.84 398.568 306.254C399.154 306.564 399.809 306.46 400.429 305.978C402.773 304.255 404.842 297.813 402.911 285.341C402.808 284.652 403.291 283.963 403.98 283.859C404.704 283.756 405.359 284.238 405.463 284.927C408.014 301.568 403.842 306.632 401.946 308.045C401.084 308.734 400.153 309.044 399.223 309.044Z" fill="#464646"/>
<path d="M429.699 373.022C429.457 373.022 429.216 372.954 428.975 372.816C425.251 370.335 423.321 367.82 423.217 367.717C422.769 367.166 422.907 366.339 423.459 365.925C424.01 365.512 424.838 365.615 425.286 366.166C425.32 366.201 427.079 368.44 430.423 370.68C431.009 371.093 431.181 371.886 430.767 372.471C430.526 372.816 430.147 373.022 429.699 373.022Z" fill="#464646"/>
<path d="M391.086 299.087C390.224 298.984 389.707 298.329 389.81 297.64C390.5 292.507 388.363 291.542 388.259 291.473C387.604 291.198 387.294 290.474 387.535 289.82C387.776 289.165 388.5 288.821 389.155 289.062C389.328 289.131 393.361 290.612 392.396 297.985C392.293 298.605 391.707 299.087 391.086 299.087Z" fill="#464646"/>
<path d="M393.086 276.865C393.086 278.209 392.259 279.277 391.224 279.277C390.19 279.277 389.363 278.209 389.363 276.865C389.363 275.522 390.19 274.454 391.224 274.454C392.259 274.454 393.086 275.522 393.086 276.865Z" fill="#2B2E4E"/>
<path d="M398.74 270.94C395.499 270.94 392.879 270.251 392.741 270.216C392.051 270.044 391.638 269.32 391.844 268.631C392.017 267.942 392.741 267.529 393.43 267.701C393.465 267.701 397.257 268.7 401.015 268.218C401.773 268.115 402.36 268.631 402.463 269.32C402.566 270.044 402.049 270.664 401.36 270.767C400.463 270.905 399.567 270.94 398.74 270.94Z" fill="#464646"/>
<path d="M69.6724 415.33L70.4309 421.773C70.4999 422.496 71.2238 422.979 71.9133 422.772L89.8405 417.673C90.9782 417.363 91.0126 415.744 89.875 415.399C86.4619 414.4 80.3253 413.298 70.7757 413.987C70.1206 414.055 69.569 414.641 69.6724 415.33Z" fill="#D15B46"/>
<path d="M72.4993 423.082C71.7753 423.082 71.0858 422.875 70.4998 422.462C69.6723 421.876 69.1207 420.98 69.0173 419.981L68.2589 412.884C68.1899 412.161 68.707 411.541 69.3965 411.472C70.1895 411.403 70.7411 411.92 70.81 412.609L71.5685 419.706C71.603 420.05 71.8443 420.257 71.9477 420.36C72.0856 420.464 72.3269 420.567 72.7062 420.498L104.975 412.54C105.665 412.367 106.354 412.781 106.527 413.47C106.699 414.159 106.285 414.848 105.596 415.02L73.3267 422.979C73.0509 423.048 72.7751 423.082 72.4993 423.082Z" fill="#E69A49"/>
<path d="M54.2276 393.005C56.3996 404.099 49.4356 414.813 38.6793 416.881C27.9229 418.982 17.4769 411.644 15.3049 400.55C13.133 389.456 20.097 378.742 30.8533 376.675C41.6097 374.607 52.0557 381.911 54.2276 393.005Z" fill="#F2E2D8"/>
<path d="M73.1201 438.344C72.4651 438.344 71.879 437.828 71.8445 437.173L70.9826 426.837C70.9137 426.114 71.4653 425.494 72.1548 425.459C72.9477 425.39 73.4993 425.941 73.5683 426.631L74.4301 436.966C74.4991 437.69 73.9475 438.31 73.258 438.344C73.189 438.344 73.1546 438.344 73.1201 438.344Z" fill="#E69A49"/>
<path d="M216.468 317.451C216.365 317.451 216.262 317.451 216.124 317.416C215.434 317.244 215.021 316.52 215.193 315.831L218.192 304.565C218.365 303.876 219.089 303.463 219.778 303.635C220.468 303.807 220.881 304.531 220.709 305.22L217.71 316.486C217.572 317.072 217.02 317.451 216.468 317.451Z" fill="#E3CEB8"/>
<path d="M207.781 311.525C207.677 311.525 207.574 311.525 207.471 311.49L178.339 303.842C177.58 303.635 177.098 302.981 177.029 302.223C176.994 301.465 177.442 300.776 178.132 300.534L207.022 288.855C207.677 288.579 208.436 288.924 208.712 289.578C208.987 290.233 208.677 290.991 207.988 291.267L181.442 301.981L208.091 308.975C208.781 309.148 209.194 309.871 209.022 310.56C208.884 311.146 208.367 311.525 207.781 311.525Z" fill="#E3CEB8"/>
<path d="M264.734 272.283C265.94 274.35 264.803 277.21 262.217 278.691C259.631 280.173 256.598 279.725 255.391 277.658C254.184 275.591 255.322 272.731 257.908 271.25C260.493 269.768 263.527 270.251 264.734 272.283Z" fill="#F2E2D8"/>
</svg>
